<svg id="Group_41" data-name="Group 41" xmlns="http://www.w3.org/2000/svg" viewBox="0 0 160 47.821"><defs><style>.cls-1{fill:#203561}</style></defs><path id="Path_48" data-name="Path 48" class="cls-1" d="M47.9 27.327a84.582 84.582 0 0 1-17.313 18.01h-4.813l.311-.233a77.117 77.117 0 0 0 18.942-18.476c5.9-8 8.384-15.992 6.211-20.262-1.009-2.018-3.028-3.105-5.745-3.105C39.2 3.261 29.345 8.695 20.728 17h-2.019l.155-.155C28.957 6.6 40.369 0 47.977 0c3.416 0 5.822 1.242 7.065 3.571 2.484 4.813-.233 13.9-7.142 23.755m-4.891-.7c5.434-7.686 7.453-14.595 5.512-18.321-.932-1.863-2.872-2.795-5.512-2.795-5.434 0-13.353 4.347-20.728 11.257l-.233.155H24.3c5.9-5.122 11.877-8.227 16.535-8.227a4.222 4.222 0 0 1 4.115 2.251c1.63 3.183-.311 9.316-4.736 15.216-8.54 11.412-19.1 17.623-24.687 17.623a4.768 4.768 0 0 1-3.959-1.708c-1.164-1.708-1.164-4.5.078-8l.155-.466L0 45.337h22.048c7.375-3.648 15.452-10.868 20.96-18.709"/><path id="Path_49" data-name="Path 49" d="M39.124 32.229l-5.978 5.978H23.6l1.63-1.708h7.22l5.434-5.434zm-13.741-3.105L16.3 38.207h2.329l9.083-9.083zm2.484 4.891l-1.708 1.63h5.978l5.2-5.2-1.164-1.164-4.736 4.736h-3.57zm1.009-4.736l-8.928 8.928h2.329l7.763-7.763zm2.484 1.164l-.078.078L29.808 32l1.164 1.164 2.795-2.717-3.882-3.882h-11.8l-1.63 1.63h12.654zm-1.16-4.735l4.115 4.115 1.164-1.164L30.817 24h-10.17l-1.63 1.63 11.179.078z" transform="translate(-3.646 -5.368)" fill="#010202"/><path id="Path_50" data-name="Path 50" class="cls-1" d="M96.4 42.226a3.243 3.243 0 0 0-1.164-.854 3.476 3.476 0 0 0-1.553-.311 4.4 4.4 0 0 0-1.4.233 3.039 3.039 0 0 0-1.242.776 4.405 4.405 0 0 0-.932 1.4 5.856 5.856 0 0 0-.311 2.174 5.6 5.6 0 0 0 .311 2.174 4.405 4.405 0 0 0 .932 1.4 3.937 3.937 0 0 0 1.242.7 4.3 4.3 0 0 0 1.4.155 4.7 4.7 0 0 0 1.708-.311 5.838 5.838 0 0 0 1.63-.932c-.233-.233-.388-.466-.621-.7a5.023 5.023 0 0 0-.621-.7 2.213 2.213 0 0 1-1.087.621 2.467 2.467 0 0 1-1.009.155 2.791 2.791 0 0 1-.854-.155 4.306 4.306 0 0 1-.621-.466 1.463 1.463 0 0 1-.311-.7 2.641 2.641 0 0 1-.078-.776h5.512v-.854a5.679 5.679 0 0 0-.233-1.708 4.315 4.315 0 0 0-.7-1.32m-4.58 2.562a2.281 2.281 0 0 1 .543-1.32 1.689 1.689 0 0 1 2.329 0 2.312 2.312 0 0 1 .543 1.4H91.82zm12.5-3.571h1.941v8.772h-1.941v-3.649h-3.493v3.649h-2.018v-8.773h2.018v3.571h3.493zm10.4 5.2l2.018.854a3.954 3.954 0 0 1-1.553 2.1 4.487 4.487 0 0 1-2.717.776 5.193 5.193 0 0 1-2.018-.388 3.105 3.105 0 0 1-1.4-1.009 4.6 4.6 0 0 1-.854-1.475 6.673 6.673 0 0 1-.311-1.863v-3.187a4.555 4.555 0 0 1 .311-1.786 3.518 3.518 0 0 1 .854-1.475 3.593 3.593 0 0 1 1.4-1.009 5.192 5.192 0 0 1 2.018-.388 4.335 4.335 0 0 1 2.717.776 4.161 4.161 0 0 1 1.553 2.1l-2.018.776a2.385 2.385 0 0 0-.776-1.164 2.238 2.238 0 0 0-1.475-.466 2.48 2.48 0 0 0-1.087.233 2.788 2.788 0 0 0-.776.543 3.013 3.013 0 0 0-.466.854 3.9 3.9 0 0 0-.155.932v3.261a4.544 4.544 0 0 0 .155 1.009 1.851 1.851 0 0 0 .466.854 3.04 3.04 0 0 0 .776.621 2.6 2.6 0 0 0 2.562-.233 4.171 4.171 0 0 0 .776-1.242m3.183-5.2h7.3v8.768h-2.018v-7.065h-3.338v7.065h-2.018v-8.773zm15.449 1.009a3.242 3.242 0 0 0-1.164-.854 3.476 3.476 0 0 0-1.553-.311 4.4 4.4 0 0 0-1.4.233 3.039 3.039 0 0 0-1.242.776 4.405 4.405 0 0 0-.932 1.4 5.857 5.857 0 0 0-.311 2.174 5.6 5.6 0 0 0 .311 2.174 4.405 4.405 0 0 0 .932 1.4 3.937 3.937 0 0 0 1.242.7 4.3 4.3 0 0 0 1.4.155 4.7 4.7 0 0 0 1.708-.311 5.838 5.838 0 0 0 1.63-.932c-.233-.233-.388-.466-.621-.7a5.025 5.025 0 0 0-.621-.7 2.213 2.213 0 0 1-1.087.621 2.467 2.467 0 0 1-1.009.155 2.791 2.791 0 0 1-.854-.155 4.306 4.306 0 0 1-.621-.466 1.463 1.463 0 0 1-.311-.7 2.641 2.641 0 0 1-.078-.776h5.512v-.854a5.68 5.68 0 0 0-.233-1.708 2.447 2.447 0 0 0-.7-1.32m-4.5 2.562a2.281 2.281 0 0 1 .543-1.32 1.689 1.689 0 0 1 2.329 0 2.313 2.313 0 0 1 .543 1.4h-3.413zM143.29 48.2h1.32v4.27h-1.786v-2.48h-6.909v-8.773h2.018V48.2h3.416v-6.983h1.941zm9.161-1.786l2.018.854a3.954 3.954 0 0 1-1.553 2.1 4.487 4.487 0 0 1-2.717.776 5.193 5.193 0 0 1-2.018-.388 3.105 3.105 0 0 1-1.4-1.009 3.519 3.519 0 0 1-.854-1.475 6.673 6.673 0 0 1-.311-1.863v-3.183a4.555 4.555 0 0 1 .311-1.786 3.519 3.519 0 0 1 .854-1.475 3.593 3.593 0 0 1 1.4-1.009 5.5 5.5 0 0 1 2.018-.388 4.335 4.335 0 0 1 2.717.776 4.161 4.161 0 0 1 1.553 2.1l-2.018.776a2.385 2.385 0 0 0-.776-1.164 2.238 2.238 0 0 0-1.475-.466 2.48 2.48 0 0 0-1.087.233 2.788 2.788 0 0 0-.776.543 1.851 1.851 0 0 0-.466.854 3.9 3.9 0 0 0-.155.932v3.261a4.544 4.544 0 0 0 .155 1.009 1.851 1.851 0 0 0 .466.854 3.04 3.04 0 0 0 .776.621 2.6 2.6 0 0 0 2.562-.233 4.17 4.17 0 0 0 .776-1.242m12.5-8.772h2.018v12.34h-2.174v-7.3h-.078l-.621 1.553-.932 2.018-.932 2.018h-1.708l-.7-1.475-1.164-2.562-.621-1.475-.078.078v7.3h-2.174v-12.5h2.018l1.63 3.493c.311.776.7 1.475 1.009 2.251.311.7.621 1.475.932 2.251h.078l1.009-2.329.932-2.1zm12.654 0l-3.571 9.471a12.313 12.313 0 0 1-.621 1.4 4.839 4.839 0 0 1-.7.932 2.068 2.068 0 0 1-.776.466 3.934 3.934 0 0 1-1.009.155h-1.164V48.2h.854a1.55 1.55 0 0 0 .7-.155 1.419 1.419 0 0 0 .466-.621l.155-.311-3.726-9.471h2.329l1.32 3.882 1.087 3.183h.078l1.009-3.105 1.32-3.882h2.244zm-97.04 0h7.918v12.34h-2.175v-10.4h-3.726v5.745c0 1.087 0 2.717-.7 3.571a3.565 3.565 0 0 1-2.639 1.087H78.7v-1.944h.078a1.7 1.7 0 0 0 1.475-.7 3.349 3.349 0 0 0 .311-1.63v-8.073zm28.025-4.968a2.825 2.825 0 0 1-1.941.776h-.7v-1.789h.311a1.068 1.068 0 0 0 1.009-.466 5.547 5.547 0 0 0 .155-1.553v-5.124h6.443v8.85h-2.018v-7.142h-2.639v3.416c0 1.087 0 2.329-.621 3.028m12.421.466a3.132 3.132 0 0 0 1.4-1.242 3.43 3.43 0 0 0 .466-1.242 10.9 10.9 0 0 0 .155-1.786 5.291 5.291 0 0 0-.155-1.63 4.614 4.614 0 0 0-.469-1.244 3.033 3.033 0 0 0-1.32-1.087 4.605 4.605 0 0 0-1.786-.388 4.116 4.116 0 0 0-2.174.543 3.64 3.64 0 0 0-1.4 1.475 4.092 4.092 0 0 0-.388 1.164 7.983 7.983 0 0 0-.078 1.4 6.05 6.05 0 0 0 .7 3.183 3.323 3.323 0 0 0 1.242 1.087 4.315 4.315 0 0 0 1.786.311 12.624 12.624 0 0 0 2.018-.543m-3.416-2.407a9.84 9.84 0 0 1-.233-.776c0-.311-.078-.621-.078-.932a3.48 3.48 0 0 1 .078-.932 2.279 2.279 0 0 1 .233-.776 1.37 1.37 0 0 1 .621-.7 1.98 1.98 0 0 1 1.863 0 2.114 2.114 0 0 1 .621.776 3.818 3.818 0 0 1 .233 1.553v.932a1.463 1.463 0 0 1-.155.621 2.171 2.171 0 0 1-.621.932 1.56 1.56 0 0 1-1.009.311 2.067 2.067 0 0 1-.932-.233 1.971 1.971 0 0 1-.621-.776m12.421-1.009h-3.493v3.649H124.5v-8.85h2.018V28.1h3.493v-3.574h2.018v8.85h-2.018zM86.075 28.8v-.854h-3.882v-1.867h3.882v-.543A3.78 3.78 0 0 0 86 24.6a4.161 4.161 0 0 0-.388-.854 1.833 1.833 0 0 0-.7-.621 2.592 2.592 0 0 0-1.164-.233 2.389 2.389 0 0 0-1.475.466 2.093 2.093 0 0 0-.854 1.164L79.4 23.75a4.115 4.115 0 0 1 .621-1.164 3.8 3.8 0 0 1 1.009-.932 6.882 6.882 0 0 1 1.32-.621 5.005 5.005 0 0 1 1.55-.233 5.314 5.314 0 0 1 2.1.388 4.608 4.608 0 0 1 1.4 1.009 5.369 5.369 0 0 1 .776 1.475 6.617 6.617 0 0 1 .233 1.786v3.183a4.7 4.7 0 0 1-.311 1.863 3.519 3.519 0 0 1-.854 1.475 4.141 4.141 0 0 1-1.475 1.009 4.306 4.306 0 0 1-2.174.543 4.729 4.729 0 0 1-2.795-.776 4.314 4.314 0 0 1-1.63-2.1l2.018-.854a2.4 2.4 0 0 0 .854 1.242 2.238 2.238 0 0 0 1.475.466 2.592 2.592 0 0 0 1.164-.233 2.5 2.5 0 0 0 1.242-1.475 3.933 3.933 0 0 0 .155-1.009m5.822-2.48h-2.72V24.6h7.453v1.708h-2.717v7.142H91.9zm9.626 6.987a2.364 2.364 0 0 0 1.009-.7v.776h2.018v-6.054a2.49 2.49 0 0 0-.311-1.4 2.282 2.282 0 0 0-.776-.932 2.629 2.629 0 0 0-1.164-.466 8.555 8.555 0 0 0-1.4-.155 6.617 6.617 0 0 0-1.786.233 3 3 0 0 0-1.475.932l1.087 1.4a3.206 3.206 0 0 1 .854-.543 3.027 3.027 0 0 1 1.242-.155 2.911 2.911 0 0 1 .854.078 1.251 1.251 0 0 1 .543.311.775.775 0 0 1 .311.388.985.985 0 0 1 .078.466v.622h-2.41a3.626 3.626 0 0 0-1.32.233 2.684 2.684 0 0 0-.932.543 2.01 2.01 0 0 0-.543.854 2.293 2.293 0 0 0-.155 1.009 2.306 2.306 0 0 0 .854 1.941 3.4 3.4 0 0 0 2.251.7 1.554 1.554 0 0 0 1.164-.078m-2.1-1.863a.416.416 0 0 1-.233-.311.7.7 0 0 1-.078-.388.757.757 0 0 1 .311-.7 2.009 2.009 0 0 1 1.087-.311h2.1v.771a.881.881 0 0 1-.233.621c-.155.155-.233.311-.466.388-.155.078-.388.155-.543.233a1.929 1.929 0 0 1-.621.078 2.393 2.393 0 0 1-.776-.078c-.311-.078-.466-.155-.543-.311" transform="translate(-17.603 -4.652)"/></svg>