<svg xmlns="http://www.w3.org/2000/svg" viewBox="0 0 192 66.277"><defs><style>.cls-1{fill:#005ca9}.cls-8{fill:#45c1f1}.cls-17{fill:#e50046}</style></defs><g id="Symbol_1_7" data-name="Symbol 1 – 7" transform="translate(-160 -20.954)"><g id="Group_42" data-name="Group 42" transform="translate(0 -11.046)"><path id="Path_4" data-name="Path 4" class="cls-1" d="M179.449 76.645v-.913a1.2 1.2 0 0 0 .406-.1.682.682 0 0 0 .355-.3 1.588 1.588 0 0 0 .254-.507 2.537 2.537 0 0 0 0-1.421 1.588 1.588 0 0 0-.254-.507.587.587 0 0 0-.355-.254 1.2 1.2 0 0 0-.406-.1v-.913a2.109 2.109 0 0 1 1.675.66 3.045 3.045 0 0 1 0 3.654 2 2 0 0 1-1.675.71zm13.347-.1h-1.167V73.4l-.863 2.03h-.812l-.863-2.03v3.146h-1.116v-4.77h1.37l1.066 2.334 1.066-2.334h1.37v4.77zm10.454 0h-1.218v-3.858h-1.624v3.857h-1.167v-4.77h4.009v4.77zm10.5 0h-1.218v-3.858h-1.218v.964a6.332 6.332 0 0 1-.1 1.066 2.748 2.748 0 0 1-.2.761 1.991 1.991 0 0 1-.2.457c-.1.1-.152.2-.2.254a1.1 1.1 0 0 1-.406.254 1.482 1.482 0 0 1-.457.1h-.508v-1.065h.406a.264.264 0 0 0 .2-.1 1.147 1.147 0 0 0 .3-.66c.051-.3.1-.761.152-1.319v-1.626h3.5v4.77zm6.445 0v-4.77h3.2v.913h-2.03v.812h1.878v.913h-1.878v1.217h2.03v.913zm13.7 0h-1.421l-1.269-1.928h-.3v1.928h-1.215v-4.77h1.218V73.7a.786.786 0 0 0 .406-.1c.1-.051.2-.254.355-.507a1.108 1.108 0 0 0 .152-.254.858.858 0 0 0 .1-.254 1.255 1.255 0 0 1 .507-.609 1.681 1.681 0 0 1 .761-.2h.406v1.015h-.254a.733.733 0 0 0-.355.1 1.466 1.466 0 0 0-.3.507 1.827 1.827 0 0 1-.254.457c-.051.1-.152.152-.2.2l1.675 2.487zm7.866.1a2.109 2.109 0 0 1-1.675-.66 2.481 2.481 0 0 1-.609-1.827 2.433 2.433 0 0 1 .609-1.776 2.109 2.109 0 0 1 1.675-.66 1.565 1.565 0 0 1 .508.051 1.482 1.482 0 0 1 .457.1 2.473 2.473 0 0 0 .355.152.826.826 0 0 1 .3.152V73.3h-.1c-.051-.051-.152-.1-.2-.2-.1-.051-.2-.152-.3-.2s-.254-.1-.355-.152a1.117 1.117 0 0 0-.406-.051 1.482 1.482 0 0 0-.457.1.789.789 0 0 0-.406.3 2.218 2.218 0 0 0-.3.507 3 3 0 0 0-.1.71 3.072 3.072 0 0 0 .1.761 4.464 4.464 0 0 0 .3.507 1.1 1.1 0 0 0 .406.254 1.078 1.078 0 0 0 .913 0 2.477 2.477 0 0 0 .355-.152c.1-.051.2-.152.3-.2s.152-.152.2-.2h.1V76.4l-.3.152c-.1.051-.254.1-.355.152a1.569 1.569 0 0 1-.406.1c-.196-.21-.348-.159-.602-.159zm-62.319-4.973v.913a1.2 1.2 0 0 0-.406.1 1.543 1.543 0 0 0-.355.254 2.34 2.34 0 0 0-.254.507 2.993 2.993 0 0 0-.1.71 2.351 2.351 0 0 0 .1.71 1.587 1.587 0 0 0 .254.507 1.033 1.033 0 0 0 .355.3 1.2 1.2 0 0 0 .406.1v.927a2.109 2.109 0 0 1-1.675-.66 3.045 3.045 0 0 1 0-3.654 2.143 2.143 0 0 1 1.675-.71zm-38.67 4.973v-.913a1.194 1.194 0 0 0 .406-.1.682.682 0 0 0 .355-.3 1.588 1.588 0 0 0 .254-.507 2.537 2.537 0 0 0 0-1.421 1.588 1.588 0 0 0-.254-.507.587.587 0 0 0-.355-.254 1.194 1.194 0 0 0-.406-.1v-.913a2.109 2.109 0 0 1 1.675.66 3.045 3.045 0 0 1 0 3.654 2.143 2.143 0 0 1-1.675.71zm12.535-.1h-1.167V73.4l-1.827 3.146H149.2v-4.77h1.167v2.842l1.675-2.842h1.218v4.77zm-.355-6.344a1.115 1.115 0 0 1-.406.913 1.806 1.806 0 0 1-1.269.355 1.891 1.891 0 0 1-1.269-.355 1.271 1.271 0 0 1-.406-.913h1.066a.664.664 0 1 0 1.319 0zm18.625 6.344h-1.421l-1.269-1.928h-.3v1.928h-1.218v-4.77h1.218V73.7a.786.786 0 0 0 .406-.1c.1-.051.2-.254.355-.507a.388.388 0 0 0 .1-.254.857.857 0 0 0 .1-.254 1.256 1.256 0 0 1 .507-.609 1.681 1.681 0 0 1 .761-.2h.406v1.015h-.254a.733.733 0 0 0-.355.1 1.465 1.465 0 0 0-.3.507 1.825 1.825 0 0 1-.254.457c-.051.1-.152.152-.2.2zm-59.782 0h-1.421l-1.167-1.928h-.3v1.928h-1.167v-1.93h-.3l-1.167 1.928H104.9l1.472-2.436c-.051-.051-.152-.1-.2-.2a1.991 1.991 0 0 1-.2-.457 1.539 1.539 0 0 0-.254-.507.461.461 0 0 0-.355-.152h-.2v-1.018h.406a1.223 1.223 0 0 1 .761.2.981.981 0 0 1 .457.609c.051.1.051.2.1.254.051.1.051.2.1.254a1.465 1.465 0 0 0 .3.507.576.576 0 0 0 .406.152v-1.976h1.167v1.979a.786.786 0 0 0 .406-.1 1.465 1.465 0 0 0 .3-.507c.051-.1.051-.152.1-.254s.051-.2.1-.254a1.385 1.385 0 0 1 .457-.609 1.681 1.681 0 0 1 .761-.2h.406v1.015h-.2a.4.4 0 0 0-.355.152 1.538 1.538 0 0 0-.254.507c-.1.2-.152.355-.2.457a.4.4 0 0 1-.2.2l1.624 2.385zm28.977-4.872v.913a1.194 1.194 0 0 0-.406.1 1.541 1.541 0 0 0-.355.254 2.337 2.337 0 0 0-.254.507 2.993 2.993 0 0 0-.1.71 2.353 2.353 0 0 0 .1.71 1.587 1.587 0 0 0 .254.507 1.033 1.033 0 0 0 .355.3 1.194 1.194 0 0 0 .406.1v.926a2.109 2.109 0 0 1-1.675-.66 3.045 3.045 0 0 1 0-3.654 2.143 2.143 0 0 1 1.675-.71zM121.8 76.544h-1.167V73.4l-1.827 3.146h-1.116v-4.77h1.167v2.842l1.675-2.842h1.218v4.77zm10.5 0h-1.218v-3.857h-1.218v.964a6.334 6.334 0 0 1-.1 1.066 2.748 2.748 0 0 1-.2.761 1.989 1.989 0 0 1-.2.457c-.1.1-.152.2-.2.254a1.1 1.1 0 0 1-.406.254 1.482 1.482 0 0 1-.457.1h-.507v-1.065h.406a.264.264 0 0 0 .2-.1 1.147 1.147 0 0 0 .3-.66c.051-.3.1-.761.152-1.319v-1.626h3.5v4.77z" transform="translate(108.335 -2.574)"/><path id="Path_5" data-name="Path 5" class="cls-1" d="M208.408 97.183v-1.066h2.131V95.1a5.01 5.01 0 0 0-.609-2.588 4.091 4.091 0 0 0-1.472-1.472v-1.875a6.884 6.884 0 0 1 1.472.3 8.354 8.354 0 0 1 2.943 1.421 6.667 6.667 0 0 1 2.081 2.69 5.705 5.705 0 0 1 .406 2.284 1.149 1.149 0 0 1-.609 1.167 3.034 3.034 0 0 1-1.167.152h-5.176zm8.17-8.475a32.5 32.5 0 0 1 .254-5.227c.152-.71.508-1.015.964-1.015h2.69a.444.444 0 0 1 .406.457c-.1.964-.254 1.928-.355 2.943a27.948 27.948 0 0 0-.152 2.791c0 1.827.051 3.349.152 4.466.1 1.167.2 2.182.355 3.2.051.355 0 .609-.152.71a3.374 3.374 0 0 1-1.421.2h-1.472a.954.954 0 0 1-.863-.406 4.69 4.69 0 0 1-.254-1.928c0-.761 0-1.928-.051-3.552-.101-1.675-.101-2.537-.101-2.639zm-8.17.457v1.878a5.914 5.914 0 0 0-2.081-.609c0 .152-.051.355-.051.609v1.116c0 .761 0 1.624.051 2.537s.051 1.421.051 1.472h2.03v1.066h-4.872a1 1 0 0 1-.812-.3 1.568 1.568 0 0 1-.254-.964V91.8c0-4.212.051-6.851.2-7.866s.507-1.522 1.116-1.522h2.69a.434.434 0 0 1 .3.152.721.721 0 0 1 .1.3 1.755 1.755 0 0 1-.152.609 8.515 8.515 0 0 0-.3 2.487c-.051.863-.1 1.624-.1 2.334v.66c.761.051 1.421.1 2.081.2zm-52.322 7.967v-1.065h.051a6.5 6.5 0 0 0 2.233-.254c.507-.254.761-.761.761-1.624a4.464 4.464 0 0 0-1.269-2.994 4.777 4.777 0 0 0-1.776-1.319v-2.081a4.3 4.3 0 0 0 .964-.71 3.279 3.279 0 0 0 .964-2.284.982.982 0 0 0-.507-1.015 4.1 4.1 0 0 0-1.37-.254v-1.015h3.045a6.35 6.35 0 0 1 2.182.254 1.487 1.487 0 0 1 .812 1.522 3.42 3.42 0 0 1-1.725 2.943 17 17 0 0 1-3.958 1.675v.2a14.65 14.65 0 0 1 4.466 1.725c1.878 1.167 2.791 2.588 2.791 4.263 0 .913-.254 1.522-.812 1.776a4.561 4.561 0 0 1-1.979.3h-4.872zm23.649-13.245l.812.964a7.406 7.406 0 0 1-1.522.812 3.774 3.774 0 0 1-1.421.3 2.488 2.488 0 0 1-1.421-.457 6.464 6.464 0 0 1-1.269-1.116c-.406-.457-.66-.761-.761-.863a1.472 1.472 0 0 0-.913-.406c-.964 0-1.624.761-2.03 2.334a18.064 18.064 0 0 0-.406 4.111 9.794 9.794 0 0 1 1.979-1.116 5.5 5.5 0 0 1 2.233-.66 3.488 3.488 0 0 1 1.218.254 6.822 6.822 0 0 1 1.218.609 1.983 1.983 0 0 0 .863.355 1.351 1.351 0 0 0 .609-.152 3.785 3.785 0 0 0 .609-.355l.609.812c-.355.406-.66.761-.863.964a8.288 8.288 0 0 1-.913.71 3.329 3.329 0 0 1-.863.507 1.621 1.621 0 0 1-.71.152 2.472 2.472 0 0 1-.761-.1 2.588 2.588 0 0 1-.71-.457c-.355-.2-.66-.406-1.015-.609a3.19 3.19 0 0 0-1.37-.406 2.762 2.762 0 0 0-1.37.355c-.2.152-.457.3-.761.558A6.808 6.808 0 0 0 171.97 95a3.754 3.754 0 0 0 3.248 1.624 5.113 5.113 0 0 0 1.878-.355A10.47 10.47 0 0 0 179.329 95l.558.66a7.589 7.589 0 0 1-2.385 1.725 7.435 7.435 0 0 1-3.248.66 8.63 8.63 0 0 1-4.923-1.37 6.936 6.936 0 0 1-2.943-6.141v-1.065a8.055 8.055 0 0 1 1.573-4.821 5.916 5.916 0 0 1 5.176-2.791 7.84 7.84 0 0 1 2.943.609 10.866 10.866 0 0 1 1.827.964 2.034 2.034 0 0 0 1.167.507c.2.152.406.1.66-.051zm18.421 4.513l-1.675-.3c.152-.457.3-.761.355-1.015a3.917 3.917 0 0 0 .1-.761 2.447 2.447 0 0 0-1.421-2.436 5.577 5.577 0 0 0-2.284-.406h-.609l-.051 2.994v2.182c0 1.675 0 3.248.051 4.72s.1 2.487.152 2.994c.051.3 0 .558-.152.66-.152.152-.507.2-1.116.2h-1.878a.739.739 0 0 1-.812-.609 17.117 17.117 0 0 1-.152-2.994l.1-1.979v-4.972l.1-3.248h-.558a5.561 5.561 0 0 0-2.233.355 2.415 2.415 0 0 0-1.472 2.436 2.716 2.716 0 0 0 .2.913c.1.406.2.71.254.863l-1.675.3a9.462 9.462 0 0 0-.761-1.928 14.816 14.816 0 0 0-1.116-1.827 2.014 2.014 0 0 1-.355-.609 1.607 1.607 0 0 1-.2-.812 1.244 1.244 0 0 1 .3-.812.967.967 0 0 1 .609-.355 4.145 4.145 0 0 1 .71.051c.3.051.71.1 1.116.152a8.961 8.961 0 0 0 1.878.152c.761 0 1.522.051 2.233.051h7.308a15.026 15.026 0 0 0 2.639-.2c.457-.051.812-.1 1.117-.152a4.145 4.145 0 0 1 .71-.051.785.785 0 0 1 .609.355 1.153 1.153 0 0 1 .3.812 2.1 2.1 0 0 1-.152.812c-.152.3-.3.507-.355.609a17.02 17.02 0 0 0-1.066 1.827c-.24.661-.494 1.321-.748 2.028zm-42.07-5.938v1.015h-1.725a47.265 47.265 0 0 0-.2 4.77 4.01 4.01 0 0 0 1.928-.457v2.081a5.108 5.108 0 0 0-1.979-.406l-.051 2.639.1 3.908h1.928v1.066h-4.821c-.457 0-.71-.3-.863-.863a33.8 33.8 0 0 1-.2-4.517 76.48 76.48 0 0 1 .2-7.815c.152-.964.507-1.421 1.116-1.421zM123.4 98.2v-4.417a4.216 4.216 0 0 0 2.233.609 2.092 2.092 0 0 0 .609-.051 7.241 7.241 0 0 0 .406-1.116 5 5 0 0 0 .152-1.218 7.679 7.679 0 0 0-1.522-4.669 7.031 7.031 0 0 0-1.827-1.675V81.35h.051a5.287 5.287 0 0 1 3.451 1.776 7.588 7.588 0 0 1 2.436 5.785 11.424 11.424 0 0 1-2.03 6.09q-2.055 3.2-3.654 3.2zm13.042-2.131h4.77l-.1-3.451-.1-3.908a32.964 32.964 0 0 1 .254-5.227c.152-.71.507-1.066.964-1.066h2.74a.411.411 0 0 1 .406.457 1.126 1.126 0 0 1-.051.457 9.857 9.857 0 0 0-.353 1.669q-.076.761-.152 1.827c0 .71-.051 1.319-.051 1.827v3.451c0 2.182.3 3.349.863 3.5a1.024 1.024 0 0 0 .558 0 1.755 1.755 0 0 1 .609-.152 3.225 3.225 0 0 1 .761-.152.877.877 0 0 1 .66.254.808.808 0 0 1 .254.507 3.424 3.424 0 0 1-.152.863 10.491 10.491 0 0 1-.457 1.218c-.1.3-.3.812-.507 1.522q-.609 1.827-1.066 3.349h-1.776a7.682 7.682 0 0 0 .355-2.334 3.069 3.069 0 0 0-.913-2.588c-.812-.66-2.487-.964-4.973-.964h-2.436l-3.3.152c-.507 0-.812-.355-.913-1.116s-.152-3.248-.152-7.46a24.573 24.573 0 0 1 .355-5.481c.152-.558.457-.812.863-.812h2.74a.444.444 0 0 1 .406.457 9.052 9.052 0 0 1-.152 1.421c-.1.609-.2 1.269-.254 1.979-.051.66-.1 1.472-.1 2.334 0 .913 0 1.725.051 2.385.252 2.39.353 4.065.353 5.08zM123.4 81.35v4.314a6.031 6.031 0 0 0-2.334-.761 3.9 3.9 0 0 0-.71 1.269 4.313 4.313 0 0 0-.254 1.269 8.194 8.194 0 0 0 1.319 4.263 6.139 6.139 0 0 0 2.03 2.081V98.2c-1.066-.1-2.182-.913-3.451-2.436a8.006 8.006 0 0 1-2.131-5.024 11.186 11.186 0 0 1 2.233-6.7c1.269-1.776 2.385-2.639 3.3-2.69zM85.9 96.879v-3.4a2.637 2.637 0 0 0 1.624-.913 2.392 2.392 0 0 0 .66-1.624 3.811 3.811 0 0 0-.2-1.218c-.152-.457-.254-.812-.355-1.116l-.406-1.37-.457-1.675c-.3.355-.609.71-.863 1.015v-1.625a1.091 1.091 0 0 0 .3-.66 1.4 1.4 0 0 0-.051-.457 5.269 5.269 0 0 1-.152-.609 1.568 1.568 0 0 1-.1-.406v-.3c.051-.1.254-.1.609-.1h3.2c.2 0 .355.051.406.152v.558a2.76 2.76 0 0 0 .2.863l.507 1.827.254.913c.71 2.842 1.37 5.126 1.928 6.851.355 1.066.761 2.131 1.116 3.146 0 .152-.2.254-.609.254h-3.2c-.152 0-.254-.152-.3-.406a3.981 3.981 0 0 1-.1-.71c-.152-.355-.254-.71-.355-1.015l-.356-1.223-.406-1.421a9.268 9.268 0 0 1-1.725 3.552 3.956 3.956 0 0 1-1.169 1.117zm14.92-14.413h2.436c.406 0 .66.1.761.254a5.951 5.951 0 0 1 .254 1.472c.1.812.254 1.878.507 3.1.254 1.269.71 3.146 1.37 5.735a16.548 16.548 0 0 1 1.624-5.126c.152-.355.355-.812.558-1.269a3.054 3.054 0 0 0 .3-1.167 18.144 18.144 0 0 0-.1-1.878 4.539 4.539 0 0 1-.1-.964c0-.1.1-.152.355-.152h2.943c.558 0 .863.152.913.507a42.75 42.75 0 0 0 1.167 7.46 38.386 38.386 0 0 0 2.03 5.227c.051.152.152.355.2.507a1.5 1.5 0 0 1 .1.507.591.591 0 0 1-.1.355 1.133 1.133 0 0 1-.609.1h-2.131c-.761 0-1.522-1.116-2.334-3.4a29.489 29.489 0 0 1-1.319-4.923l-.245-1.321a36.032 36.032 0 0 0-1.573 4.314 15.341 15.341 0 0 0-.609 3.908v1.116c0 .2-.1.3-.254.3h-2.436a1.568 1.568 0 0 1-.66-.1 2.355 2.355 0 0 1-.71-1.37c-.355-1.218-.71-2.436-1.015-3.6-.355-1.573-.761-3.5-1.218-5.735a13.885 13.885 0 0 0-2.081 3.552 9.875 9.875 0 0 0-.761 3.7 4.274 4.274 0 0 0 .2 1.37c.051.254.2.609.355 1.116.051.2.152.406.2.558a2.066 2.066 0 0 1 .1.355c0 .152-.1.2-.355.2H95.9c-.2 0-.355-.152-.406-.406a2.976 2.976 0 0 1-.1-1.015 10.337 10.337 0 0 1 1.012-3.953 21.681 21.681 0 0 1 1.725-3.146c.558-.913.964-1.624 1.218-2.03a6.039 6.039 0 0 0 .812-2.537c0-.152-.051-.254-.051-.355a2.731 2.731 0 0 1-.051-.558.99.99 0 0 1 .051-.355.647.647 0 0 1 .2-.3 2.3 2.3 0 0 1 .511-.053zm-22.583.406h-8.22v-1.319h1.37c0-2.081-.355-3.6-1.116-4.517a2.79 2.79 0 0 0-2.284-1.116 3.04 3.04 0 0 0-2.537 1.319c-.863 1.167-1.269 2.994-1.269 5.43a26.6 26.6 0 0 0 .254 3.552 40.145 40.145 0 0 0 .913 4.364 18.2 18.2 0 0 1 .66 4.415 3 3 0 0 1-.1.71l-.152.609-.152.457a1.228 1.228 0 0 0 .71.152c1.218 0 2.334-.812 3.4-2.385a9.261 9.261 0 0 0 1.624-5.278v-.812h-1.321v-1.318h8.272v1.319h-1.32a8.3 8.3 0 0 1-3.552 6.7 11.346 11.346 0 0 1-7.156 2.639 7.219 7.219 0 0 1-1.319-.1 5.114 5.114 0 0 1-.964-.3v-.457a3.951 3.951 0 0 0-.457-1.878 25.636 25.636 0 0 0-2.284-3.258 12.069 12.069 0 0 1-2.182-3.857 9.1 9.1 0 0 1-.355-2.791v-.812a9.37 9.37 0 0 1 9.642-9.74c2.943 0 5.176.863 6.7 2.639a8.7 8.7 0 0 1 1.979 4.314h1.319v1.319zm7.663-.254zm0 2.382v1.624a18.38 18.38 0 0 0-1.37 2.081 5.792 5.792 0 0 0-.913 2.69 2.644 2.644 0 0 0 .457 1.472 1.552 1.552 0 0 0 1.421.66.989.989 0 0 0 .406-.051v3.4a3.994 3.994 0 0 1-2.131.609 2.966 2.966 0 0 1-2.69-1.472 5 5 0 0 1-.71-2.639 6.831 6.831 0 0 1 1.522-3.7c.355-.507 1.167-1.472 2.436-2.943.1-.152.558-.609 1.37-1.472.102-.103.152-.205.202-.259z" transform="translate(131.089 -4.741)"/><g id="Group_2" data-name="Group 2" transform="translate(160 54.837)"><path id="Path_6" data-name="Path 6" d="M18.98 45L0 53.475l19.284-.71z" transform="translate(0 -45)" fill="#009fe3"/><path id="Path_7" data-name="Path 7" d="M19.284 60.3l.254 8.221L0 61.01z" transform="translate(0 -52.536)" fill="#00a4e5"/><path id="Path_8" data-name="Path 8" d="M37.4 45l19.589 7.409-19.289.355z" transform="translate(-18.42 -45)" fill="#00a3e5"/><path id="Path_9" data-name="Path 9" d="M57.284 59.6l-19.03 8.576L38 59.955z" transform="translate(-18.716 -52.191)" fill="#00aee7"/><path id="Path_10" data-name="Path 10" d="M26.912 51.1L15.9 56.226l11.215-.457z" transform="translate(-7.831 -48.004)" fill="#00a6e7"/><path id="Path_11" data-name="Path 11" d="M38.2 65.075L49.621 60 38 60.152z" transform="translate(-18.716 -52.388)" fill="#d5edfc"/><path id="Path_12" data-name="Path 12" class="cls-8" d="M27.115 60.3l-11.215.457 11.418 4.466z" transform="translate(-7.831 -52.536)"/><path id="Path_13" data-name="Path 13" class="cls-8" d="M37.6 51.1l.2 4.669 11.621-.152z" transform="translate(-18.519 -48.004)"/></g><g id="Group_3" data-name="Group 3" transform="translate(173.398 38.395)"><path id="Path_14" data-name="Path 14" d="M43.857 19.248L26.4 12.6l12.687 11.824z" transform="translate(-26.4 -12.6)" fill="#ef7d00"/><path id="Path_15" data-name="Path 15" d="M39.087 24.424l-5.024 5.329L26.4 12.6z" transform="translate(-26.4 -12.6)" fill="#ee750f"/><path id="Path_16" data-name="Path 16" d="M56.17 25.7l7.714 17.153L51.4 30.876z" transform="translate(-38.713 -19.052)" fill="#ee760c"/><path id="Path_17" data-name="Path 17" d="M59.008 47.877L41.5 41.229l5.024-5.329z" transform="translate(-33.837 -24.076)" fill="#ec651f"/><path id="Path_18" data-name="Path 18" d="M47.051 26.055L36.8 22.3l7.409 6.9z" transform="translate(-31.522 -17.377)" fill="#f49539"/><path id="Path_19" data-name="Path 19" d="M45.5 39.1L56 43.157 48.494 35.9z" transform="translate(-35.807 -24.076)" fill="#feead7"/><path id="Path_20" data-name="Path 20" d="M44.209 29.2L36.8 22.3l4.415 10.1z" transform="translate(-31.522 -17.377)" fill="#f7a95e"/><path id="Path_21" data-name="Path 21" d="M54.242 29.7L51.4 32.846l7.511 7.254z" transform="translate(-38.713 -21.022)" fill="#f9bb7e"/></g><g id="Group_4" data-name="Group 4" transform="translate(198.721 57.628)"><path id="Path_22" data-name="Path 22" class="cls-17" d="M96.952 63.067L107.2 58.5l-10.4.355z" transform="translate(-86.397 -54.44)"/><path id="Path_23" data-name="Path 23" class="cls-17" d="M96.652 54.915L96.5 50.5l10.556 4.06z" transform="translate(-86.249 -50.5)"/><path id="Path_24" data-name="Path 24" class="cls-17" d="M86.856 63.412L76.3 59.4l10.4-.2z" transform="translate(-76.3 -54.785)"/><path id="Path_25" data-name="Path 25" class="cls-17" d="M76.3 55.118L86.551 50.5l.152 4.415z" transform="translate(-76.3 -50.5)"/><path id="Path_26" data-name="Path 26" d="M96.9 61.491l5.938-2.791-6.039.254z" transform="translate(-86.397 -54.539)" fill="#e7313b"/><path id="Path_27" data-name="Path 27" d="M90.591 54L84.4 56.74l6.293-.1z" transform="translate(-80.289 -52.224)" fill="#fce5de"/><path id="Path_28" data-name="Path 28" d="M96.7 56.639l6.039-.254L96.6 54z" transform="translate(-86.298 -52.224)" fill="#ef7d70"/><path id="Path_29" data-name="Path 29" d="M90.794 61.737l-.1-2.537-6.293.1z" transform="translate(-80.289 -54.785)" fill="#f39a8b"/></g><g id="Group_5" data-name="Group 5" transform="translate(191.921 32)"><path id="Path_30" data-name="Path 30" d="M81.148 14.92L74.5 0l.558 15.174z" transform="translate(-68.613)" fill="#afca0b"/><path id="Path_31" data-name="Path 31" d="M69.345 15.174l-6.445.2L68.787 0z" transform="translate(-62.9)" fill="#aac913"/><path id="Path_32" data-name="Path 32" d="M81.69 29.4l-5.836 15.427-.254-15.173z" transform="translate(-69.155 -14.48)" fill="#abc910"/><path id="Path_33" data-name="Path 33" d="M69.6 45.074L62.9 30.1l6.445-.2z" transform="translate(-62.9 -14.726)" fill="#9ec420"/><path id="Path_34" data-name="Path 34" d="M78.909 21.178L74.9 12.5l.355 8.83z" transform="translate(-68.81 -6.156)" fill="#b9cf33"/><path id="Path_35" data-name="Path 35" d="M68 30.052l4.009 8.982-.152-9.134z" transform="translate(-65.412 -14.726)" fill="#f5f8e6"/><path id="Path_36" data-name="Path 36" d="M71.857 21.33L71.5 12.5 68 21.482z" transform="translate(-65.412 -6.156)" fill="#cfdc77"/><path id="Path_37" data-name="Path 37" d="M79.254 29.6l-3.654.152.152 9.135z" transform="translate(-69.155 -14.578)" fill="#d4df86"/></g><g id="Group_6" data-name="Group 6" transform="translate(198.67 43.52)"><path id="Path_38" data-name="Path 38" d="M97.757 35.692L102.73 22.7l-8.83 9.439z" transform="translate(-84.918 -22.7)" fill="#fc0"/><path id="Path_39" data-name="Path 39" d="M90.058 32.139L86.1 28.384 98.889 22.7z" transform="translate(-81.076 -22.7)" fill="#fec700"/><path id="Path_40" data-name="Path 40" d="M89.039 44.852L76.2 50.587l8.982-9.287z" transform="translate(-76.2 -31.861)" fill="#fec800"/><path id="Path_41" data-name="Path 41" d="M76.2 46.942L81.224 33.9l3.958 3.755z" transform="translate(-76.2 -28.216)" fill="#fcbf00"/><path id="Path_42" data-name="Path 42" d="M96.234 38.063l2.792-7.663-5.126 5.532z" transform="translate(-84.918 -26.492)" fill="#ffd228"/><path id="Path_43" data-name="Path 43" d="M86.245 36.9L83.2 44.715l5.43-5.582z" transform="translate(-79.648 -29.694)" fill="#fff7de"/><path id="Path_44" data-name="Path 44" d="M91.585 35.932l5.126-5.532-7.511 3.3z" transform="translate(-82.603 -26.492)" fill="#ffde75"/><path id="Path_45" data-name="Path 45" d="M90.965 43.431L88.63 41.3l-5.43 5.582z" transform="translate(-79.648 -31.861)" fill="#ffe599"/></g></g></g></svg>