<svg xmlns="http://www.w3.org/2000/svg" viewBox="0 0 935 457"><path fill="rgba(254,199,0,.3)" stroke="#fec700" d="M128.445 148.32l-1.042 12.702 21.585 79.847 72.106-.583 3.492-3.275c-.158-1.721.408-4.25 1.43-5.472v-7.581l-4.343-4.665c-1.156-1.614-.25-3.923 1.738-4.666l-.87-9.038c-1.347-.775-2.368-3.08-1.737-4.082 8.562-18.614 20.892-16.707 33.013-13.121l6.95-3.5 6.081-7.872v-6.123l30.117-36.738-8.5-65.003-13.22-.31-1.447-19.243-2.896-.875-.579-2.624-19.402-.875-.29-2.624-8.687-1.458-3.475 2.041v2.625l-38.225-.292-.869-4.374-14.769 1.167.58 5.54-37.766.839-.34-2.159-6.642-.018c.443 4.375.575 3.955-.054 4.284-1.763.923-3.85.299-24.12.76l.051 4.896 27.143.868-.544 25.607-2.09.024-24.333.284.353 16.223 12.452 44.61z" fill-opacity=".6"/></svg>