<svg xmlns="http://www.w3.org/2000/svg" viewBox="0 0 180.7 199.7"><path d="M12.2 107.2l-1 12.7 21.6 79.8 72.1-.6 3.5-3.3c-.2-1.7.4-4.2 1.4-5.5v-7.4l-4.3-4.7c-1.2-1.6-.3-3.9 1.7-4.7l-.9-9c-1.3-.8-2.4-3.1-1.7-4.1 8.6-18.6 20.9-16.7 33-13.1l6.9-3.5 6.1-7.9v-6.1l30.1-36.7-8.5-65-13.2-.3-1.4-19.2-2.9-.9-.6-2.6-19.4-.9-.3-2.6-8.7-1.5-3.5 2v2.6L84 4.4 83.1 0 68.3 1.2l.6 5.5-37.8.8-.3-2.2h-6.6c.4 4.4.6 4-.1 4.3-1.8.9-3.8.3-24.1.8l.6 47.9 12.5 44.6-.9 4.3z" fill="rgba(254,199,0,.3)" stroke="#fec700" fill-opacity=".6"/></svg>