<svg xmlns="http://www.w3.org/2000/svg" viewBox="0 0 518.8 418.009"><path data-name="Subtraction 3" d="M152.076 417.51c-1.357 0-2.682-.021-3.936-.062a111.49 111.49 0 0 1-26.1-4 73.252 73.252 0 0 1-9.968-3.468l-77.493-41.133-1.655-8.04-8.592-5.108a60.182 60.182 0 0 1-3.766-8.606c-.926-3.239 1.65-6.435 1.676-6.466l-9.8-47.466c-.03-.036-3.091-3.684-3.963-6.346-.856-2.619.508-6.408.566-6.568l-2.692-13.779c-.031-.064-3.125-6.426-3.608-7.927-.489-1.519 1.4-4.554 1.421-4.584l-3.662-17.32c.015-.066 1.528-6.613 2.241-7.725l.139-.225a38.42 38.42 0 0 1 7.118-8.574 33.414 33.414 0 0 1 7.6-5.163 30.3 30.3 0 0 1 10.454-2.949 66.293 66.293 0 0 1 6.3-.316 37.474 37.474 0 0 1 12.55 1.839 13.029 13.029 0 0 1 3.667 1.84l22.691-11.965-1.7-14.208c.41-.219 43.562-23.286 65.959-35.975 11.014-6.239 27.259-17.2 43.454-29.309 17.04-12.745 32.183-25.379 41.545-34.662a111.969 111.969 0 0 0 12.388-14.54 98.117 98.117 0 0 0 7.58-12.479 62.8 62.8 0 0 0 4.832-12.012l-2.491-32.172 41.971-5.049V8.535l14.539-1.025 2.375 1.025v2.758l55.673-5.391V1.969L372.712.51l2.631.876v3.147l18.6-1.7 34.775 13.589-2.021 83.083-37.223 5.6 7.3.569 4.337 2.552 5.315-.944 15.6 9.444v4.464l26.916 16.361 5.354-.72 16.529 9.7v5.12l.02.01c1.508.851 36.971 20.888 41.5 25.181a22 22 0 0 1 5.95 9.348l-7.81 106.835a175.885 175.885 0 0 1-2.239 26.378 19.317 19.317 0 0 1-5.006 9.856 38.225 38.225 0 0 1-8.693 6.973 61.08 61.08 0 0 1-11.914 5.515l-283.752 70.818c-.064.012-6.6 1.255-15.542 2.471a246.822 246.822 0 0 1-31.263 2.474zM327.542 99.757l-21.254 3.4 1.189 29.616c-.051.309-5.175 31-9.328 42.056-4.147 11.042-9.581 21.877-9.634 21.984l46.951 2.124-1.165-77.363 12.6-21.814-13.293 3.4-6.069-3.4zm47.806-2.741l-28.372 3.037 38.237 2.079-9.865-5.116z" fill="rgba(254,199,0,.3)" stroke="#fec700"/></svg>