<svg xmlns="http://www.w3.org/2000/svg" viewBox="0 0 383.057 465.515"><path data-name="Path 663" d="M.513 326.282l121.637 64.163v19.118l12.509 6.079v6.374l56.03 28.479v3.576l6.189 2.647 5.645-1.465 17.234 4.023 19.968 2.5v2.518l11.63.691v-3.209h20.6l14.824-1.043 3.485 1.043 7.737-1.043v-2.806l14.6-3.854h7.421l3.238-1.433v-2.144l14.7-11.412h4.186l1.76-2.384v-4.038l4.662-9.4h2.125v-33.2l6.887-6.69 6.52-14.731 2.839-9.559v-8.087h-1.907l8.466-119.152 3.641-5.679 1.371-11.119-3.311-5.413 3.311-35.156 3.341-12.009.7-6.684-2.84-10.645-17.608-14.974-2.634-5.275h-8.346v-4.162h2.178v-3.288l-26.862-19.458h-10.036v-5.493l-29.377-17.894-28.5-.983v-5.228l3.373-3v-6.419s-3.716-12.941-34.353-21.453-72.18-10.981-72.18-10.981L73.866.681v8.775L13.06 29.031z" fill="rgba(254,199,0,.3)" stroke="#fec700"/></svg>