<svg xmlns="http://www.w3.org/2000/svg" viewBox="0 0 122.841 242.751"><path data-name="Path 634" d="M122.341 10.713v66.6l-5.323-2.695-37.19 27.369h-6l.265 138.816-16.327-5.034v6.305L14.298 229s-8.69-2.541-10.1-5.92 0-15.492 0-15.492-4.022-2.342-3.66-5.3 3.66-3.066 3.66-3.066v-68.37s-3.825-1.827-3.66-2.327a41.739 41.739 0 0 0 0-4.56l3-1.485v-4.3l-3-1.966v-4.744l3.66-2.142v-4.027l-3.66-2.195v-5.239l3-1.972v-5.488l-2.2-2.065v-6.02l16.264-27.094-.588-9.313 10.229-14.384h2.789l1.971-3.98h3.1L53.582.541z" fill="rgba(254,199,0,.3)" stroke="#fec700"/></svg>