<svg xmlns="http://www.w3.org/2000/svg" viewBox="0 0 291.901 231.906"><path data-name="Path 623" d="M200.814 13.103l38.057 6.2 10.139-6.2 27.605 9.179 7.853 12.853v25.49h6.909l-4.3 87.123s-8.187 35.275-38.069 54.255-109.256 23.182-109.256 23.182c-1.465 1.953-61.175 6.146-61.175 6.146s-21.9 1.215-30.395-8.363S.51 163.309.51 163.309l7.88-112.66 10.269-2.667 2.165-31.184L94.531.622v5.532l6.021 6.949h6.381l8.322 9.179h18.6v-9.179h13.57l3.1 6.2 31.211-2.5 3.72 2.5h13.049z" fill="rgba(254,199,0,.3)" stroke="#fec700"/></svg>