<svg xmlns="http://www.w3.org/2000/svg" viewBox="0 0 1860.351 1507.6"><defs><style>.cls-1{fill:rgba(0,0,0,.03)}</style></defs><g id="Group_395" data-name="Group 395" transform="translate(-805.081 221.205)"><path id="Path_558" data-name="Path 558" class="cls-1" d="M1592.788 908.69c-154.89 219.428-358.829 433.693-575.675 598.91H857.059l10.326-7.745c219.428-144.564 438.856-356.248 629.887-614.4 196.194-265.9 278.8-531.79 206.52-673.773-33.56-67.119-100.679-103.26-191.031-103.26-209.1 0-536.952 180.705-823.5 456.927h-67.119l5.163-5.163C962.9 219.428 1342.382 0 1595.369 0c113.586 0 193.613 41.3 234.917 118.749 82.608 160.053-7.745 462.09-237.5 789.941m-162.635-23.234c180.7-255.569 247.824-485.323 183.286-609.235a151.8 151.8 0 0 0-40.243-50.4c-34.706-28.3-83.534-42.538-143.043-42.538-180.705 0-444.019 144.564-689.262 374.318l-7.745 5.163h74.864c196.194-170.379 394.97-273.64 549.86-273.64 64.537 0 113.586 25.815 136.819 74.864 54.212 105.842-10.326 309.781-157.471 505.975-283.965 379.481-635.05 586-820.918 586-59.375 0-103.26-20.652-131.657-56.793-38.723-56.793-38.723-149.728 2.581-265.9l5.163-15.489L0 1507.6h733.147c245.243-121.331 513.719-361.411 697.006-622.143" transform="translate(805.081 -221.205)"/><path id="Path_559" data-name="Path 559" class="cls-1" d="M775.262 297.64L576.486 496.416H258.961l54.212-56.793h240.08l180.705-180.706zM318.336 194.38L16.3 496.416h77.445L395.781 194.38zm82.608 162.635l-56.793 54.212h198.776l172.96-172.962-38.723-38.723-157.471 157.472H400.944zM434.5 199.542L137.631 496.416h77.445l258.15-258.151zm82.608 38.723l-2.581 2.581-49.045 49.054 38.718 38.718 92.934-90.353L468.063 109.19H75.675L21.463 163.4h420.785zM478.389 80.793l136.82 136.82 38.723-38.723L499.041 24H160.864l-54.211 54.212 371.736 2.581z" transform="translate(1209.581 374.356)"/></g></svg>