<svg xmlns="http://www.w3.org/2000/svg" viewBox="0 0 78 72.87"><defs><style>.cls-1{fill:purple}.cls-2{fill:gray}.cls-3{fill:#400080}</style></defs><g id="Group_261" data-name="Group 261" transform="rotate(90 38.95 39.05)"><path id="Path_165" data-name="Path 165" d="M74.277 36.41H69a.32.32 0 0 1-.3-.3V26.3a.32.32 0 0 1 .3-.3h5.279a.32.32 0 0 1 .3.3v9.815a.32.32 0 0 1-.302.295zm-4.982-.595h4.759v-9.22h-4.759z" transform="translate(-17.643 -6.667)"/><path id="Path_166" data-name="Path 166" d="M73.913 38.538H69.9a.32.32 0 0 1-.3-.3V37.5a.32.32 0 0 1 .3-.3h4.015a.32.32 0 0 1 .3.3v.744c-.079.146-.154.294-.302.294zm-3.792-.52h3.495v-.223H70.12z" transform="translate(-17.873 -9.539)"/><path id="Path_167" data-name="Path 167" d="M73.913 34.949H69.9a.32.32 0 0 1-.3-.3V29.3a.32.32 0 0 1 .3-.3h4.015a.32.32 0 0 1 .3.3v5.354c-.079.146-.154.295-.302.295zm-3.792-.595h3.495V29.52H70.12z" transform="translate(-17.873 -7.437)"/><path id="Path_168" data-name="Path 168" d="M73.913 28.338H69.9a.32.32 0 0 1-.3-.3V27.3a.32.32 0 0 1 .3-.3h4.015a.32.32 0 0 1 .3.3v.744c-.079.146-.154.294-.302.294zm-3.792-.52h3.495v-.149H70.12z" transform="translate(-17.873 -6.924)"/><path id="Path_169" data-name="Path 169" d="M5.574 85.059a.23.23 0 0 1-.074-.149l1.71-1.71h.149c.074 0 0 .074 0 .149l-1.785 1.71z" transform="translate(-1.436 -21.335)"/><path id="Path_170" data-name="Path 170" d="M11.974 85.059a.23.23 0 0 1-.074-.149l1.71-1.71h.149c.074 0 0 .074 0 .149l-1.785 1.71z" transform="translate(-3.077 -21.335)"/><path id="Path_171" data-name="Path 171" d="M19.174 84.39a.23.23 0 0 1-.074-.149l1.041-1.041h.149c.074 0 0 .074 0 .149l-1.116 1.041z" transform="translate(-4.924 -21.335)"/><path id="Path_172" data-name="Path 172" d="M43.774 85.059a.23.23 0 0 1-.074-.149l1.71-1.71h.149c.074 0 0 .074 0 .149l-1.785 1.71z" transform="translate(-11.232 -21.335)"/><path id="Path_173" data-name="Path 173" d="M50.174 85.623a.23.23 0 0 1-.074-.149l.074-.074h.149c.074 0 0 .074 0 .149l-.149.074z" transform="translate(-12.873 -21.899)"/><path id="Path_174" data-name="Path 174" d="M51.774 83.795a.23.23 0 0 1-.074-.149l.446-.446h.149c.074 0 0 .074 0 .149l-.52.446z" transform="translate(-13.283 -21.335)"/><path id="Path_175" data-name="Path 175" d="M56.474 85.444a.23.23 0 0 1-.074-.149l.595-.595h.149c.074 0 0 .074 0 .149l-.669.595z" transform="translate(-14.489 -21.72)"/><path id="Path_176" data-name="Path 176" d="M88.274 85.213a.23.23 0 0 1-.074-.149l1.264-1.264h.149c.074 0 0 .074 0 .149l-1.338 1.264z" transform="translate(-22.643 -21.489)"/><path id="Path_177" data-name="Path 177" d="M17.864 85.105a.32.32 0 0 1-.3-.3v-1.41H5.3a.3.3 0 0 1 0-.595h12.564a.32.32 0 0 1 .3.3v1.71a.272.272 0 0 1-.3.295z" transform="translate(-1.308 -21.233)"/><path id="Path_178" data-name="Path 178" d="M55.1 85.105a.32.32 0 0 1-.3-.3v-1.41h-11v1.413a.3.3 0 0 1-.595 0V83.1a.32.32 0 0 1 .3-.3h11.518a.32.32 0 0 1 .3.3v1.71c-.003.221-.077.295-.223.295z" transform="translate(-11.104 -21.233)"/><path id="Path_179" data-name="Path 179" d="M84.6 85.105a.32.32 0 0 1-.3-.3V83.1a.32.32 0 0 1 .3-.3h7.436a.3.3 0 0 1 0 .595h-7.141v1.413a.272.272 0 0 1-.295.297z" transform="translate(-21.643 -21.233)"/><path id="Path_180" data-name="Path 180" d="M17.941 85.649H5.374a.073.073 0 0 1-.074-.074l.074-.074h12.567a.074.074 0 1 1 0 .149z" transform="translate(-1.385 -21.925)"/><path id="Path_181" data-name="Path 181" d="M55.2 85.649H43.674a.073.073 0 0 1-.074-.074l.074-.074H55.2a.073.073 0 0 1 .074.074z" transform="translate(-11.206 -21.925)"/><path id="Path_182" data-name="Path 182" d="M92.11 85.649h-7.436a.073.073 0 0 1-.074-.074l.074-.074h7.436a.073.073 0 0 1 .074.074z" transform="translate(-21.72 -21.925)"/><path id="Path_183" data-name="Path 183" d="M29.661 83.349h-7.287a.073.073 0 0 1-.074-.074l.074-.074h7.287a.073.073 0 0 1 .074.074z" transform="translate(-5.744 -21.335)"/><path id="Path_184" data-name="Path 184" d="M78.135 83.349H59.174a.073.073 0 0 1-.074-.074l.074-.074H78.21a.073.073 0 0 1 .074.074.26.26 0 0 1-.149.074z" transform="translate(-15.181 -21.335)"/><path id="Path_185" data-name="Path 185" d="M.3 85.105a.32.32 0 0 1-.3-.3V83.1a.32.32 0 0 1 .3-.3h1.633a.3.3 0 0 1 0 .595H.52v1.413c0 .223-.074.297-.22.297z" transform="translate(-.026 -21.233)"/><path id="Path_186" data-name="Path 186" d="M1.936 85.649H.374a.073.073 0 0 1-.074-.075l.074-.074H2.01a.073.073 0 0 1 .074.074.26.26 0 0 1-.148.075z" transform="translate(-.103 -21.925)"/><path id="Path_187" data-name="Path 187" d="M2.474 5.282a.23.23 0 0 1-.074-.149L4.482 3.2h.149v.149L2.474 5.282z" transform="translate(-.641 -.821)"/><path id="Path_188" data-name="Path 188" d="M2.474 11.759a.23.23 0 0 1-.074-.149L4.185 9.9h.149v.149l-1.859 1.71z" transform="translate(-.641 -2.539)"/><path id="Path_189" data-name="Path 189" d="M4.149 17.123h-.075C4 17.123 4 17.049 4 16.974a.073.073 0 0 1 .074-.074h.074a.073.073 0 0 1 .074.074s.001.149-.073.149z" transform="translate(-1.051 -4.334)"/><path id="Path_190" data-name="Path 190" d="M3.174 23.836a.23.23 0 0 1-.074-.149L4.736 22.2h.149v.149l-1.71 1.487c.074-.075.074 0-.001 0z" transform="translate(-.821 -5.693)"/><path id="Path_191" data-name="Path 191" d="M2.474 30.631a.23.23 0 0 1-.074-.149L4.556 28.4h.149v.149l-2.231 2.082z" transform="translate(-.641 -7.283)"/><path id="Path_192" data-name="Path 192" d="M2.474 37.031a.23.23 0 0 1-.074-.149L4.556 34.8h.149v.149l-2.231 2.082z" transform="translate(-.641 -8.924)"/><path id="Path_193" data-name="Path 193" d="M2.474 43.838a.23.23 0 0 1-.074-.148l1.19-1.19h.149c.074 0 0 .074 0 .149l-1.264 1.19z" transform="translate(-.641 -10.898)"/><path id="Path_194" data-name="Path 194" d="M3.323 49.749h-.149a.073.073 0 0 1-.074-.074l.074-.074h.074a.073.073 0 0 1 .074.074z" transform="translate(-.821 -12.719)"/><path id="Path_195" data-name="Path 195" d="M4.874 48.02a.23.23 0 0 1-.074-.149l.372-.372h.148c.074 0 0 .074 0 .149l-.446.372z" transform="translate(-1.257 -12.181)"/><path id="Path_196" data-name="Path 196" d="M2.474 56.205a.23.23 0 0 1-.074-.149L4.556 53.9h.149c.074 0 0 .074 0 .149l-2.231 2.156z" transform="translate(-.641 -13.822)"/><path id="Path_197" data-name="Path 197" d="M2.474 62.605a.23.23 0 0 1-.074-.149L4.556 60.3h.149c.074 0 0 .074 0 .149l-2.231 2.156c.075-.074.075 0 0 0z" transform="translate(-.641 -15.463)"/><path id="Path_198" data-name="Path 198" d="M2.474 68.905a.23.23 0 0 1-.074-.149L4.556 66.6h.149c.074 0 0 .074 0 .149l-2.231 2.156z" transform="translate(-.641 -17.078)"/><path id="Path_199" data-name="Path 199" d="M2.474 75.807c-.074-.074-.074-.074-.074-.149l.52-.669a.105.105 0 0 1 .149.149l-.595.669z" transform="translate(-.641 -19.221)"/><path id="Path_200" data-name="Path 200" d="M4.874 73.629l-.074-.074v-.074c.074-.074.074-.074.149 0v.074l-.074.074z" transform="translate(-1.257 -18.829)"/><path id="Path_201" data-name="Path 201" d="M2.474 82.323a.073.073 0 0 1-.074-.074v-.074a.073.073 0 0 1 .074-.074l.074.074v.074c.001.074.001.074-.074.074z" transform="translate(-.641 -21.053)"/><path id="Path_202" data-name="Path 202" d="M4.074 80.515A.23.23 0 0 1 4 80.367l.967-.967h.149c.074 0 0 .074 0 .149l-1.041.967z" transform="translate(-1.051 -20.361)"/><path id="Path_203" data-name="Path 203" d="M5.3 62.906a.32.32 0 0 1-.3-.3V3.123c0-.149.149-.223.3-.223s.3.074.3.223v59.485a.272.272 0 0 1-.3.298z" transform="translate(-1.308 -.744)"/><path id="Path_204" data-name="Path 204" d="M2.4 62.162a.32.32 0 0 1-.3-.3V.3c.074-.149.149-.3.3-.3a.32.32 0 0 1 .3.3v61.639c-.005.149-.154.223-.3.223z" transform="translate(-.564)"/><path id="Path_205" data-name="Path 205" d="M4.554 85.695H2.4a.3.3 0 0 1 0-.595h2.154a.3.3 0 0 1 0 .595z" transform="translate(-.564 -21.823)"/><path id="Path_206" data-name="Path 206" d="M5.374 2.65c-.074 0-.074-.074-.074-.15l1.338-1.411a.105.105 0 0 1 .149.149L5.374 2.65z" transform="translate(-1.385 -.271)"/><path id="Path_207" data-name="Path 207" d="M11.574 2.605a.23.23 0 0 1-.074-.149L13.582.3h.149v.149l-2.157 2.156c.075-.074.075 0 0 0z" transform="translate(-2.975 -.077)"/><path id="Path_208" data-name="Path 208" d="M17.974 2.605a.23.23 0 0 1-.074-.149L19.982.3h.149v.149l-2.157 2.156z" transform="translate(-4.616 -.077)"/><path id="Path_209" data-name="Path 209" d="M25.574 1.564a.23.23 0 0 1-.074-.149L26.615.3h.149c.074 0 0 .074 0 .149l-1.19 1.115z" transform="translate(-6.565 -.077)"/><path id="Path_210" data-name="Path 210" d="M30.674 3.2c-.074-.074-.074-.074-.074-.149l.3-.372c0-.074.074-.074.149 0 .074 0 .074.074 0 .149l-.372.372c.072-.073.072 0-.003 0z" transform="translate(-7.873 -.673)"/><path id="Path_211" data-name="Path 211" d="M32.764 1.223a.073.073 0 0 1-.074-.074v-.075C32.615 1 32.689 1 32.764 1a.073.073 0 0 1 .074.074v.074a.073.073 0 0 1-.074.075z" transform="translate(-8.4 -.256)"/><path id="Path_212" data-name="Path 212" d="M37.064 2.605c-.074-.074-.149-.149-.074-.149L39.071.3h.149v.149l-2.156 2.156z" transform="translate(-9.503 -.077)"/><path id="Path_213" data-name="Path 213" d="M43.374 2.605a.23.23 0 0 1-.074-.149L45.456.3h.149c.074 0 0 .074 0 .149l-2.231 2.156c.075-.074.075 0 0 0z" transform="translate(-11.129 -.077)"/><path id="Path_214" data-name="Path 214" d="M49.774 3.272a.23.23 0 0 1-.074-.149l.223-.223h.149v.149l-.3.223z" transform="translate(-12.77 -.744)"/><path id="Path_215" data-name="Path 215" d="M65.349.449h-.074A.073.073 0 0 1 65.2.374L65.274.3h.074a.074.074 0 0 1 0 .149z" transform="translate(-16.745 -.077)"/><path id="Path_216" data-name="Path 216" d="M68.874 2.605a.23.23 0 0 1-.074-.149L70.956.3h.149c.074 0 0 .074 0 .149l-2.231 2.156z" transform="translate(-17.668 -.077)"/><path id="Path_217" data-name="Path 217" d="M75.174 2.605a.23.23 0 0 1-.074-.149L77.256.3h.149c.074 0 0 .074 0 .149l-2.231 2.156c.075-.074.075 0 0 0z" transform="translate(-19.284 -.077)"/><path id="Path_218" data-name="Path 218" d="M82.074 2.233A.23.23 0 0 1 82 2.085L83.785.3h.149c.074 0 0 .074 0 .149l-1.86 1.784z" transform="translate(-21.053 -.077)"/><path id="Path_219" data-name="Path 219" d="M89.223 1.949h-.074c-.074 0-.149 0-.149-.074a.073.073 0 0 1 .074-.074h.074a.073.073 0 0 1 .074.074z" transform="translate(-22.848 -.462)"/><path id="Path_220" data-name="Path 220" d="M90.774.449L90.7.374V.3h.149v.074c.074 0 .074 0-.074.074z" transform="translate(-23.284 -.077)"/><path id="Path_221" data-name="Path 221" d="M94.274 2.836a.23.23 0 0 1-.074-.149L95.687 1.2h.149c.074 0 0 .074 0 .149l-1.562 1.487c.075-.075.075 0 0 0z" transform="translate(-24.182 -.308)"/><path id="Path_222" data-name="Path 222" d="M37.717 2.677H4.554a.32.32 0 0 1-.3-.3.32.32 0 0 1 .3-.3h32.94V.52H2.4a.32.32 0 0 1-.3-.3c0-.146.149-.22.3-.22h35.317a.32.32 0 0 1 .3.3v2.154a.332.332 0 0 1-.3.223z" transform="translate(-.564)"/><path id="Path_223" data-name="Path 223" d="M86.8 3.395H64.2a.32.32 0 0 1-.3-.3.32.32 0 0 1 .3-.3h22.6c.149.074.223.149.223.3s-.072.3-.223.3z" transform="translate(-16.412 -.718)"/><path id="Path_224" data-name="Path 224" d="M88.835 2.677a.32.32 0 0 1-.3-.3V.52H64.52v1.859a.32.32 0 0 1-.3.3c-.149 0-.223-.149-.223-.3V.3c0-.149.074-.3.223-.3h24.615a.32.32 0 0 1 .3.3v2.154a.332.332 0 0 1-.3.223z" transform="translate(-16.437)"/><path id="Path_225" data-name="Path 225" d="M95.908 85.649h-4.834a.073.073 0 0 1-.074-.075l.074-.074h4.833a.073.073 0 0 1 .074.074z" transform="translate(-23.361 -21.925)"/><path id="Path_226" data-name="Path 226" d="M95.474 8.423a.23.23 0 0 1-.074-.149l.074-.074h.149v.149l-.149.074z" transform="translate(-24.489 -2.103)"/><path id="Path_227" data-name="Path 227" d="M97.174 6.627c-.074-.074-.074-.074-.074-.149l.149-.3c0-.074.074-.074.149 0 .074 0 .074.074 0 .149l-.223.3z" transform="translate(-24.925 -1.571)"/><path id="Path_228" data-name="Path 228" d="M94.774 14.882a.23.23 0 0 1-.074-.149l1.933-1.933h.149c.074 0 0 .074 0 .149l-2.008 1.933z" transform="translate(-24.31 -3.282)"/><path id="Path_229" data-name="Path 229" d="M94.674 21.331a.23.23 0 0 1-.074-.149l2.082-2.082h.149c.074 0 0 .074 0 .149l-2.156 2.082z" transform="translate(-24.284 -4.898)"/><path id="Path_230" data-name="Path 230" d="M94.674 27.631a.23.23 0 0 1-.074-.149l2.082-2.082h.149c.074 0 0 .074 0 .149l-2.156 2.082z" transform="translate(-24.284 -6.513)"/><path id="Path_231" data-name="Path 231" d="M94.674 34.544a.23.23 0 0 1-.074-.149l.595-.595h.149c.074 0 0 .074 0 .149l-.669.595z" transform="translate(-24.284 -8.667)"/><path id="Path_232" data-name="Path 232" d="M97.174 32.249l-.074-.074V32.1h.149v.074l-.074.074z" transform="translate(-24.925 -8.232)"/><path id="Path_233" data-name="Path 233" d="M94.774 40.949l-.074-.074V40.8h.149v.074a.073.073 0 0 1-.074.074z" transform="translate(-24.31 -10.462)"/><path id="Path_234" data-name="Path 234" d="M96.374 39.167a.23.23 0 0 1-.074-.149l.818-.818h.149c.074 0 0 .074 0 .149l-.892.818z" transform="translate(-24.72 -9.796)"/><path id="Path_235" data-name="Path 235" d="M94.674 46.731a.23.23 0 0 1-.074-.149l2.082-2.082h.149c.074 0 0 .074 0 .149l-2.156 2.082z" transform="translate(-24.284 -11.411)"/><path id="Path_236" data-name="Path 236" d="M94.674 53.131a.23.23 0 0 1-.074-.149l2.082-2.082h.149c.074 0 0 .074 0 .149l-2.156 2.082z" transform="translate(-24.284 -13.052)"/><path id="Path_237" data-name="Path 237" d="M94.674 59.533a.23.23 0 0 1-.074-.149l1.859-1.784h.149v.149l-1.933 1.785z" transform="translate(-24.284 -14.771)"/><path id="Path_238" data-name="Path 238" d="M94.674 66.523a.23.23 0 0 1-.074-.149l.074-.074h.149c.074 0 0 .074 0 .149l-.149.074z" transform="translate(-24.284 -17.002)"/><path id="Path_239" data-name="Path 239" d="M95.474 71.561a.23.23 0 0 1-.074-.149L96.813 70h.149c.074 0 0 .074 0 .149l-1.487 1.413z" transform="translate(-24.489 -17.95)"/><path id="Path_240" data-name="Path 240" d="M94.674 78.531a.23.23 0 0 1-.074-.149l2.082-2.082h.149c.074 0 0 .074 0 .149l-2.156 2.082z" transform="translate(-24.284 -19.566)"/><path id="Path_241" data-name="Path 241" d="M94.674 84.931a.23.23 0 0 1-.074-.149l2.082-2.082h.149c.074 0 0 .074 0 .149l-2.156 2.082z" transform="translate(-24.284 -21.207)"/><path id="Path_242" data-name="Path 242" d="M94.6 62.88a.32.32 0 0 1-.3-.3V3.1a.32.32 0 0 1 .3-.3c.149 0 .223.149.223.3v59.483c-.003.223-.077.297-.223.297z" transform="translate(-24.207 -.718)"/><path id="Path_243" data-name="Path 243" d="M96.579 85.695H94.5a.3.3 0 0 1 0-.595h2.082a.3.3 0 1 1 0 .595z" transform="translate(-24.182 -21.823)"/><path id="Path_244" data-name="Path 244" d="M97.3 67.044a.32.32 0 0 1-.3-.3V3.1a.3.3 0 0 1 .595 0v63.647a.32.32 0 0 1-.295.297z" transform="translate(-24.9 -.718)"/><path id="Path_245" data-name="Path 245" d="M5.258 3.3c-.074 0-.074-.074 0 0-.149-.074-.149-.149-.074-.149L5.258 3h.149c.074 0 0 .074 0 .149l-.149.151z" transform="translate(-1.342 -.769)"/><path id="Path_246" data-name="Path 246" d="M48.441 70.7H47.7a.32.32 0 0 1-.3-.3V33.6a.3.3 0 0 1 .595 0v36.581h.149V33.6a.3.3 0 0 1 .595 0v36.878c-.001.149-.149.222-.298.222z" transform="translate(-12.181 -8.539)"/><path id="Path_247" data-name="Path 247" d="M68.741 11.8H68a.32.32 0 0 1-.3-.3V3.1a.32.32 0 0 1 .3-.3h.744a.32.32 0 0 1 .3.3v8.4a.32.32 0 0 1-.303.3zm-.446-.52h.149V3.395h-.149z" transform="translate(-17.386 -.718)"/><path id="Path_248" data-name="Path 248" d="M68.1 31.1a.32.32 0 0 1-.3-.3v-4.9a.3.3 0 0 1 .595 0v4.9c-.075.154-.149.3-.295.3z" transform="translate(-17.412 -6.565)"/><path id="Path_249" data-name="Path 249" d="M68.1 38.282a.32.32 0 0 1-.3-.3V33.6a.3.3 0 1 1 .595 0v4.387c-.075.146-.149.295-.295.295z" transform="translate(-17.412 -8.539)"/><path id="Path_250" data-name="Path 250" d="M68.741 36.307a.32.32 0 0 1-.3-.3v-9.812H68a.3.3 0 0 1 0-.595h.744a.32.32 0 0 1 .3.3v10.11a.32.32 0 0 1-.303.297z" transform="translate(-17.386 -6.565)"/><path id="Path_251" data-name="Path 251" d="M3.944 99.2H3.5a.32.32 0 0 1-.3-.3V87.6a.32.32 0 0 1 .3-.3h.446a.32.32 0 0 1 .3.3v11.374c-.005.149-.154.226-.302.226z" transform="translate(-.846 -22.387)"/><path id="Path_252" data-name="Path 252" d="M3.674 99.125a.073.073 0 0 1-.074-.074V87.674a.073.073 0 0 1 .074-.074l.074.074v11.377a.073.073 0 0 1-.074.074z" transform="translate(-.949 -22.464)"/><path id="Path_253" data-name="Path 253" d="M4.074 99.125A.073.073 0 0 1 4 99.051V87.674a.073.073 0 0 1 .074-.074l.074.074v11.377z" transform="translate(-1.051 -22.464)"/><path id="Path_254" data-name="Path 254" d="M67.02 33.613H63.9a.32.32 0 0 1-.3-.3V32.5a.32.32 0 0 1 .3-.3h3.12a.3.3 0 0 1 0 .595h-2.825v.3h2.825a.32.32 0 0 1 .3.3c-.002.143-.151.218-.3.218z" transform="translate(-16.335 -8.257)"/><path id="Path_255" data-name="Path 255" d="M50.254 32.795H48.1a.3.3 0 0 1 0-.595h2.156a.3.3 0 0 1 0 .595z" transform="translate(-12.283 -8.257)"/><path id="Path_256" data-name="Path 256" d="M47.547 33.645a.273.273 0 0 1-.223-.074l-.744-.818a.263.263 0 1 1 .372-.372l.744.818a.338.338 0 0 1 0 .372c.004.074-.074.074-.149.074z" transform="translate(-11.956 -8.289)"/><path id="Path_257" data-name="Path 257" d="M50.408 33.613H48.7a.3.3 0 1 1 0-.595h1.41V32.5a.3.3 0 1 1 .595 0v.818a.32.32 0 0 1-.297.295z" transform="translate(-12.437 -8.257)"/><path id="Path_258" data-name="Path 258" d="M46.387 32.211c-.074 0-.149 0-.149-.074l-1.264-1.19a.372.372 0 0 1 0-.446l.52-.52a.338.338 0 0 1 .372 0l1.71 1.71a.263.263 0 0 1-.372.372l-1.487-1.487-.149.149 1.041.967c.074.074.149.3 0 .372-.073.147-.148.147-.222.147z" transform="translate(-11.54 -7.674)"/><path id="Path_259" data-name="Path 259" d="M35.96 20.683a.273.273 0 0 1-.223-.074l-2.156-2.156a.263.263 0 0 1 .372-.372l2.156 2.156a.338.338 0 0 1 0 .372c0 .074-.074.074-.149.074z" transform="translate(-8.623 -4.622)"/><path id="Path_260" data-name="Path 260" d="M35.44 21.563a.273.273 0 0 1-.223-.074l-1.636-1.636a.263.263 0 1 1 .372-.372l1.413 1.413.372-.372a.263.263 0 0 1 .372.372l-.52.52c-.002.149-.076.149-.15.149z" transform="translate(-8.623 -4.981)"/><path id="Path_261" data-name="Path 261" d="M33.641 15.738a.273.273 0 0 1-.223-.074l-.744-.744a.273.273 0 0 1-.074-.22V3.1a.32.32 0 0 1 .3-.3h.744a.32.32 0 0 1 .3.3v11.225a.3.3 0 0 1-.595 0V3.395H33.2v11.228l.669.669a.338.338 0 0 1 0 .372c-.154 0-.154.074-.228.074z" transform="translate(-8.385 -.718)"/><path id="Path_262" data-name="Path 262" d="M88.033 39.795H69a.3.3 0 0 1 0-.595h19.033a.3.3 0 0 1 0 .595z" transform="translate(-17.643 -10.052)"/><path id="Path_263" data-name="Path 263" d="M87.8 40.438H68.1a.32.32 0 0 1-.3-.3V39.4a.3.3 0 0 1 .595 0v.446h19.184V39.4a.3.3 0 0 1 .595 0v.744c-.149.22-.223.294-.374.294z" transform="translate(-17.412 -10.027)"/><path id="Path_264" data-name="Path 264" class="cls-1" d="M43.825 102.649h-5.651a.073.073 0 0 1-.074-.074l.074-.074h5.651a.074.074 0 0 1 0 .149z" transform="translate(-9.796 -26.284)"/><path id="Path_265" data-name="Path 265" class="cls-1" d="M32.231 102.649h-5.057a.073.073 0 0 1-.074-.074l.074-.074h5.056a.073.073 0 0 1 .074.074z" transform="translate(-6.975 -26.284)"/><path id="Path_266" data-name="Path 266" class="cls-1" d="M21.131 102.649h-5.057a.073.073 0 0 1-.074-.074l.074-.074h5.056a.074.074 0 1 1 0 .149z" transform="translate(-4.129 -26.284)"/><path id="Path_267" data-name="Path 267" class="cls-1" d="M9.9 102.649H4.174a.073.073 0 0 1-.074-.074l.074-.074H9.9a.073.073 0 0 1 .074.074z" transform="translate(-1.077 -26.284)"/><path id="Path_268" data-name="Path 268" class="cls-2" d="M.474 86.987a.23.23 0 0 1-.074-.149L1.738 85.5h.149c.074 0 0 .074 0 .149L.474 86.987z" transform="translate(-.128 -21.925)"/><path id="Path_269" data-name="Path 269" class="cls-2" d="M3.074 87.185C3 87.185 3 87.11 3 87.036L4.636 85.4h.149c.074 0 0 .074 0 .149l-1.71 1.636z" transform="translate(-.795 -21.899)"/><path id="Path_270" data-name="Path 270" class="cls-2" d="M6.074 87.185C6 87.185 6 87.11 6 87.036L7.636 85.4h.149c.074 0 0 .074 0 .149l-1.71 1.636z" transform="translate(-1.564 -21.899)"/><path id="Path_271" data-name="Path 271" class="cls-2" d="M9.074 87.185C9 87.185 9 87.11 9 87.036l1.636-1.636h.149c.074 0 0 .074 0 .149l-1.71 1.636z" transform="translate(-2.334 -21.899)"/><path id="Path_272" data-name="Path 272" class="cls-2" d="M12.074 87.185c-.074 0-.074-.074-.074-.149l1.636-1.636h.149c.074 0 0 .074 0 .149l-1.71 1.636z" transform="translate(-3.103 -21.899)"/><path id="Path_273" data-name="Path 273" class="cls-2" d="M15.074 87.185c-.074 0-.074-.074-.074-.149l1.636-1.636h.149c.074 0 0 .074 0 .149l-1.71 1.636z" transform="translate(-3.872 -21.899)"/><path id="Path_274" data-name="Path 274" class="cls-2" d="M18.174 87.173a.23.23 0 0 1-.074-.149l1.487-1.636a.105.105 0 1 1 .149.149l-1.561 1.636z" transform="translate(-4.667 -21.888)"/><path id="Path_275" data-name="Path 275" class="cls-2" d="M21.174 87.43a.23.23 0 0 1-.074-.149l.818-.892a.105.105 0 1 1 .149.149l-.892.892z" transform="translate(-5.436 -22.144)"/><path id="Path_276" data-name="Path 276" class="cls-2" d="M43.674 86.095a.23.23 0 0 1-.074-.149l.521-.446h.149v.149l-.595.446z" transform="translate(-11.206 -21.925)"/><path id="Path_277" data-name="Path 277" class="cls-2" d="M45.174 87.185a.23.23 0 0 1-.074-.149l1.636-1.636h.149c.074 0 0 .074 0 .149l-1.71 1.636z" transform="translate(-11.591 -21.899)"/><path id="Path_278" data-name="Path 278" class="cls-2" d="M1.59 87.3L.4 86.037v-.149c0-.074.074 0 .149 0l1.19 1.264c0 .074 0 .149-.149.149z" transform="translate(-.128 -22.016)"/><path id="Path_279" data-name="Path 279" class="cls-2" d="M4.461 87.185L2.9 85.549V85.4h.149l1.487 1.636c.074.074.074.149-.074.149z" transform="translate(-.769 -21.899)"/><path id="Path_280" data-name="Path 280" class="cls-2" d="M7.636 87.173L6 85.537v-.149c0-.074.074 0 .149 0l1.636 1.636c-.074.074-.074.149-.149.149z" transform="translate(-1.564 -21.888)"/><path id="Path_281" data-name="Path 281" class="cls-2" d="M10.636 87.173L9 85.537v-.149c0-.074.074 0 .149 0l1.636 1.636c-.074.074-.074.149-.149.149z" transform="translate(-2.334 -21.888)"/><path id="Path_282" data-name="Path 282" class="cls-2" d="M13.636 87.173L12 85.537v-.149c0-.074.074 0 .149 0l1.636 1.636c-.074.074-.074.149-.149.149z" transform="translate(-3.103 -21.888)"/><path id="Path_283" data-name="Path 283" class="cls-2" d="M16.636 87.173L15 85.537v-.149c0-.074.074 0 .149 0l1.636 1.636c-.074.074-.074.149-.149.149z" transform="translate(-3.872 -21.888)"/><path id="Path_284" data-name="Path 284" class="cls-2" d="M19.636 87.173L18 85.537v-.149c0-.074.074 0 .149 0l1.636 1.636c-.074.074-.074.149-.149.149z" transform="translate(-4.641 -21.888)"/><path id="Path_285" data-name="Path 285" class="cls-2" d="M21.941 86.578L20.9 85.537v-.149c0-.074.074 0 .149 0l.967.967c.074.074.074.149-.074.223z" transform="translate(-5.385 -21.888)"/><path id="Path_286" data-name="Path 286" class="cls-2" d="M44.046 87.609l-.446-.372v-.149c0-.074.074 0 .149 0l.372.372c0 .074 0 .149-.074.149z" transform="translate(-11.206 -22.324)"/><path id="Path_287" data-name="Path 287" class="cls-2" d="M46.636 87.185L45 85.549V85.4h.149l1.487 1.636c.074.074.074.149 0 .149z" transform="translate(-11.565 -21.899)"/><path id="Path_288" data-name="Path 288" d="M16.556 87.331H.2a.3.3 0 1 1 0-.595h16.133V85.4a.3.3 0 0 1 .595 0v1.636a.494.494 0 0 1-.372.295z" transform="translate(0 -21.823)"/><path id="Path_289" data-name="Path 289" d="M4.554 85.695H2.4a.3.3 0 0 1 0-.595h2.154a.3.3 0 0 1 0 .595z" transform="translate(-.564 -21.823)"/><path id="Path_290" data-name="Path 290" d="M.3 87.331a.32.32 0 0 1-.3-.3V85.4a.32.32 0 0 1 .3-.3.32.32 0 0 1 .3.3v1.636c-.08.146-.154.295-.3.295z" transform="translate(-.026 -21.823)"/><path id="Path_291" data-name="Path 291" d="M46.72 87.331H43.6a.32.32 0 0 1-.3-.3V85.4a.3.3 0 1 1 .595 0v1.338h2.6V85.4a.3.3 0 1 1 .595 0v1.636c-.147.146-.221.295-.37.295z" transform="translate(-11.129 -21.823)"/><path id="Path_292" data-name="Path 292" d="M43.674 85.649l-.074-.074V85.5h.149v.074l-.074.074z" transform="translate(-11.206 -21.925)"/><path id="Path_293" data-name="Path 293" d="M46.8 87.185h-3.126a.073.073 0 0 1-.074-.074v-1.637a.073.073 0 0 1 .074-.074l.074.074v1.487H46.8a.073.073 0 0 1 .074.074z" transform="translate(-11.206 -21.899)"/><path id="Path_294" data-name="Path 294" d="M.449 85.649H.374a.073.073 0 0 1-.074-.075l.074-.074h.075a.073.073 0 0 1 .074.074z" transform="translate(-.103 -21.925)"/><path id="Path_295" data-name="Path 295" d="M16.684 87.185H.474A.073.073 0 0 1 .4 87.11v-1.636a.073.073 0 0 1 .074-.074l.074.074v1.487H16.61v-1.412H4.118a.073.073 0 0 1-.074-.074l.074-.074h12.566a.073.073 0 0 1 .074.074v1.635c0 .075 0 .075-.074.075z" transform="translate(-.128 -21.899)"/><path id="Path_296" data-name="Path 296" d="M1.936 85.649H.374a.073.073 0 0 1-.074-.075l.074-.074H2.01a.073.073 0 0 1 .074.074.26.26 0 0 1-.148.075z" transform="translate(-.103 -21.925)"/><path id="Path_297" data-name="Path 297" d="M46.8 85.649h-3.126a.073.073 0 0 1-.074-.074l.074-.074H46.8a.073.073 0 0 1 .074.074z" transform="translate(-11.206 -21.925)"/><path id="Path_298" data-name="Path 298" class="cls-2" d="M48.174 87.569a.23.23 0 0 1-.074-.149l.52-.52h.149c.074 0 0 .074 0 .149l-.595.52z" transform="translate(-12.36 -22.284)"/><path id="Path_299" data-name="Path 299" class="cls-2" d="M51.174 87.569a.23.23 0 0 1-.074-.149l.52-.52h.149c.074 0 0 .074 0 .149l-.595.52z" transform="translate(-13.129 -22.284)"/><path id="Path_300" data-name="Path 300" class="cls-2" d="M54.174 87.569a.23.23 0 0 1-.074-.149l.521-.52h.149c.074 0 0 .074 0 .149l-.595.52z" transform="translate(-13.899 -22.284)"/><path id="Path_301" data-name="Path 301" class="cls-2" d="M57.174 87.569a.23.23 0 0 1-.074-.149l.52-.52h.149c.074 0 0 .074 0 .149l-.595.52z" transform="translate(-14.668 -22.284)"/><path id="Path_302" data-name="Path 302" class="cls-2" d="M84.674 87.3a.23.23 0 0 1-.074-.149l.3-.151h.149v.149l-.372.149z" transform="translate(-21.72 -22.31)"/><path id="Path_303" data-name="Path 303" class="cls-2" d="M87.374 87.569a.23.23 0 0 1-.074-.149l.52-.52h.149c.074 0 0 .074 0 .149l-.595.52z" transform="translate(-22.412 -22.284)"/><path id="Path_304" data-name="Path 304" class="cls-2" d="M90.374 87.569a.23.23 0 0 1-.074-.149l.521-.52h.149c.074 0 0 .074 0 .149l-.595.52z" transform="translate(-23.182 -22.284)"/><path id="Path_305" data-name="Path 305" class="cls-2" d="M93.374 87.569a.23.23 0 0 1-.074-.149l.52-.52h.149c.074 0 0 .074 0 .149l-.595.52z" transform="translate(-23.951 -22.284)"/><path id="Path_306" data-name="Path 306" class="cls-2" d="M96.374 87.569a.23.23 0 0 1-.074-.149l.52-.52h.149c.074 0 0 .074 0 .149l-.595.52z" transform="translate(-24.72 -22.284)"/><path id="Path_307" data-name="Path 307" class="cls-2" d="M49.995 87.532l-.595-.595v-.149c0-.074.074 0 .149 0l.52.52c0 .149 0 .223-.074.223z" transform="translate(-12.693 -22.247)"/><path id="Path_308" data-name="Path 308" class="cls-2" d="M52.995 87.532l-.595-.595v-.149c0-.074.074 0 .149 0l.52.52c0 .149 0 .223-.074.223z" transform="translate(-13.463 -22.247)"/><path id="Path_309" data-name="Path 309" class="cls-2" d="M55.995 87.532l-.595-.595v-.149c0-.074.074 0 .149 0l.52.52c0 .149 0 .223-.074.223z" transform="translate(-14.232 -22.247)"/><path id="Path_310" data-name="Path 310" class="cls-2" d="M59.02 87.544l-.52-.595V86.8h.149l.446.52c0 .149 0 .223-.074.223z" transform="translate(-15.027 -22.258)"/><path id="Path_311" data-name="Path 311" class="cls-2" d="M86.095 87.532l-.595-.595v-.149c0-.074.074 0 .149 0l.52.52c0 .149 0 .223-.074.223z" transform="translate(-21.951 -22.247)"/><path id="Path_312" data-name="Path 312" class="cls-2" d="M89.095 87.532l-.595-.595v-.149c0-.074.074 0 .149 0l.52.52c0 .149 0 .223-.074.223z" transform="translate(-22.72 -22.247)"/><path id="Path_313" data-name="Path 313" class="cls-2" d="M92.095 87.532l-.595-.595v-.149c0-.074.074 0 .149 0l.52.52c0 .149 0 .223-.074.223z" transform="translate(-23.489 -22.247)"/><path id="Path_314" data-name="Path 314" class="cls-2" d="M95.095 87.532l-.595-.595v-.149c0-.074.074 0 .149 0l.52.52c0 .149 0 .223-.074.223z" transform="translate(-24.259 -22.247)"/><path id="Path_315" data-name="Path 315" class="cls-2" d="M48.974 86.69a.23.23 0 0 1-.074-.149l1.041-1.041h.149c.074 0 0 .074 0 .149l-1.116 1.041z" transform="translate(-12.565 -21.925)"/><path id="Path_316" data-name="Path 316" class="cls-2" d="M51.974 86.69a.23.23 0 0 1-.074-.149l1.041-1.041h.149c.074 0 0 .074 0 .149l-1.116 1.041z" transform="translate(-13.335 -21.925)"/><path id="Path_317" data-name="Path 317" class="cls-2" d="M54.974 86.69a.23.23 0 0 1-.074-.149l1.041-1.041h.149c.074 0 0 .074 0 .149l-1.116 1.041z" transform="translate(-14.104 -21.925)"/><path id="Path_318" data-name="Path 318" class="cls-2" d="M57.974 86.7a.23.23 0 0 1-.074-.149l.892-.967c0-.074.074-.074.149 0a.1.1 0 0 1 0 .149l-.967.967z" transform="translate(-14.873 -21.931)"/><path id="Path_319" data-name="Path 319" class="cls-2" d="M85.064 86.678c-.074-.074-.149-.074-.074-.149l.967-1.041a.105.105 0 0 1 .149.149l-1.041 1.041z" transform="translate(-21.812 -21.914)"/><path id="Path_320" data-name="Path 320" class="cls-2" d="M88.058 86.69c-.149-.074-.149-.074-.074-.149l1.04-1.041h.149c.074 0 0 .074 0 .149l-1.115 1.041z" transform="translate(-22.575 -21.925)"/><path id="Path_321" data-name="Path 321" class="cls-2" d="M91.058 86.69c-.149-.074-.149-.074-.074-.149l1.04-1.041h.149c.074 0 0 .074 0 .149l-1.115 1.041z" transform="translate(-23.344 -21.925)"/><path id="Path_322" data-name="Path 322" class="cls-2" d="M94.058 86.69c-.149-.074-.149-.074-.074-.149l1.04-1.041h.149c.074 0 0 .074 0 .149l-1.115 1.041z" transform="translate(-24.114 -21.925)"/><path id="Path_323" data-name="Path 323" class="cls-2" d="M49.041 86.664L48 85.549V85.4h.149l.967 1.041c.074.149.074.149-.074.223z" transform="translate(-12.334 -21.899)"/><path id="Path_324" data-name="Path 324" class="cls-2" d="M52.041 86.664L51 85.549V85.4h.149l.967 1.041c.074.149.074.149-.074.223z" transform="translate(-13.104 -21.899)"/><path id="Path_325" data-name="Path 325" class="cls-2" d="M55.041 86.664L54 85.549V85.4h.149l.967 1.041c.074.149.074.149-.074.223z" transform="translate(-13.873 -21.899)"/><path id="Path_326" data-name="Path 326" class="cls-2" d="M58.19 86.653L57 85.537v-.149c0-.074.074 0 .149 0l1.041 1.042c.074.149.074.149 0 .223z" transform="translate(-14.642 -21.888)"/><path id="Path_327" data-name="Path 327" class="cls-2" d="M85.369 86.807l-.669-.669v-.149c0-.074.074 0 .149 0l.595.595c0 .149 0 .149-.074.223z" transform="translate(-21.746 -22.042)"/><path id="Path_328" data-name="Path 328" class="cls-2" d="M88.19 86.653L87 85.537v-.149c0-.074.074 0 .149 0l1.041 1.042c.074.149.074.149 0 .223z" transform="translate(-22.335 -21.888)"/><path id="Path_329" data-name="Path 329" class="cls-2" d="M91.19 86.653L90 85.537v-.149c0-.074.074 0 .149 0l1.041 1.042c.074.149.074.149 0 .223z" transform="translate(-23.105 -21.888)"/><path id="Path_330" data-name="Path 330" class="cls-2" d="M94.19 86.653L93 85.537v-.149c0-.074.074 0 .149 0l1.041 1.042c.074.149.074.149 0 .223z" transform="translate(-23.874 -21.888)"/><path id="Path_331" data-name="Path 331" class="cls-2" d="M97.19 86.653L96 85.537v-.149c0-.074.074 0 .149 0l1.041 1.042c.074.149.074.149 0 .223z" transform="translate(-24.643 -21.888)"/><path id="Path_332" data-name="Path 332" d="M96.579 85.695H94.5a.3.3 0 0 1 0-.595h2.082a.3.3 0 1 1 0 .595z" transform="translate(-24.182 -21.823)"/><path id="Path_333" data-name="Path 333" d="M84.6 87.331a.32.32 0 0 1-.3-.3V85.4a.3.3 0 1 1 .595 0v1.636a.32.32 0 0 1-.295.295z" transform="translate(-21.643 -21.823)"/><path id="Path_334" data-name="Path 334" d="M56.2 87.331h-8.4a.32.32 0 0 1-.3-.3V85.4a.3.3 0 1 1 .595 0v1.338h7.882V85.4a.3.3 0 1 1 .595 0v1.636c-.149.146-.224.295-.372.295z" transform="translate(-12.206 -21.823)"/><path id="Path_335" data-name="Path 335" d="M56.277 87.049h-8.4a.073.073 0 0 1-.074-.074l.074-.074h8.4a.073.073 0 0 1 .074.074z" transform="translate(-12.283 -22.284)"/><path id="Path_336" data-name="Path 336" d="M56.277 85.649h-8.4a.073.073 0 0 1-.074-.074l.074-.074h8.4a.073.073 0 0 1 .074.074z" transform="translate(-12.283 -21.925)"/><path id="Path_337" data-name="Path 337" d="M94.266 87.049h-9.592a.073.073 0 0 1-.074-.074l.074-.074h9.518a.073.073 0 0 1 .074.074z" transform="translate(-21.72 -22.284)"/><path id="Path_338" data-name="Path 338" d="M92.11 85.649h-7.436a.073.073 0 0 1-.074-.074l.074-.074h7.436a.073.073 0 0 1 .074.074z" transform="translate(-21.72 -21.925)"/><path id="Path_339" data-name="Path 339" d="M78.135 87.749H59.174a.073.073 0 0 1-.074-.074l.074-.074H78.21a.073.073 0 0 1 .074.074.26.26 0 0 1-.149.074z" transform="translate(-15.181 -22.464)"/><path id="Path_340" data-name="Path 340" d="M95.192 87.895H88.8a.3.3 0 0 1 0-.595h6.395a.3.3 0 1 1 0 .595z" transform="translate(-22.72 -22.387)"/><path id="Path_341" data-name="Path 341" d="M56.225 88.713H47.9a.32.32 0 0 1-.3-.3V87.6a.32.32 0 0 1 .3-.3h8.328a.32.32 0 0 1 .3.3v.818c-.08.146-.154.295-.303.295zm-8.031-.595h7.733v-.3h-7.732z" transform="translate(-12.232 -22.387)"/><path id="Path_342" data-name="Path 342" d="M56.3 88.749h-8.326a.073.073 0 0 1-.074-.074l.074-.074H56.3a.073.073 0 0 1 .074.074z" transform="translate(-12.309 -22.72)"/><path id="Path_343" data-name="Path 343" d="M88.874 88.823a.073.073 0 0 1-.074-.074v-.074a.073.073 0 0 1 .074-.074l.074.074v.074c.001.074.001.074-.074.074z" transform="translate(-22.797 -22.72)"/><path id="Path_344" data-name="Path 344" d="M94.189 88.995H84.6a.3.3 0 0 1 0-.595h9.518a.32.32 0 0 1 .3.3c-.006.146-.08.295-.229.295z" transform="translate(-21.643 -22.669)"/><path id="Path_345" data-name="Path 345" d="M84.6 88.713a.32.32 0 0 1-.3-.3V87.6a.32.32 0 0 1 .3-.3h3.12a.3.3 0 0 1 0 .595h-2.825v.521a.32.32 0 0 1-.295.297z" transform="translate(-21.643 -22.387)"/><path id="Path_346" data-name="Path 346" d="M94.266 88.823a.073.073 0 0 1-.074-.074h-9.518a.073.073 0 0 1-.074-.074l.074-.074h9.518a.073.073 0 0 1 .074.074v.074c.075.074 0 .074 0 .074z" transform="translate(-21.72 -22.72)"/><path id="Path_347" data-name="Path 347" d="M78.135 88.849H59.174a.073.073 0 0 1-.074-.074l.074-.074H78.21a.073.073 0 0 1 .074.074.26.26 0 0 1-.149.074z" transform="translate(-15.181 -22.746)"/><path id="Path_348" data-name="Path 348" d="M78.135 87.749H59.174a.073.073 0 0 1-.074-.074l.074-.074H78.21a.073.073 0 0 1 .074.074.26.26 0 0 1-.149.074z" transform="translate(-15.181 -22.464)"/><path id="Path_349" data-name="Path 349" d="M47.3 103.885a.32.32 0 0 1-.3-.3V102.4a.3.3 0 1 1 .595 0v1.19a.272.272 0 0 1-.295.295z" transform="translate(-12.078 -26.182)"/><path id="Path_350" data-name="Path 350" d="M47.669 104.208H47.3a.3.3 0 1 1 0-.595h.074v-.818H47.3a.3.3 0 1 1 0-.595h.372a.32.32 0 0 1 .3.3v1.413c-.08.146-.154.295-.303.295z" transform="translate(-12.078 -26.208)"/><path id="Path_351" data-name="Path 351" d="M46.887 104.592H45.7a.32.32 0 0 1-.3-.3V104a.32.32 0 0 1 .3-.3h1.19a.32.32 0 0 1 .3.3v.3a.32.32 0 0 1-.303.292z" transform="translate(-11.668 -26.592)"/><path id="Path_352" data-name="Path 352" d="M35.107 98.828H4.174a.073.073 0 0 1-.074-.074l.074-.074h30.858v-11a.073.073 0 0 1 .074-.074l.074.074v11.073c.075.075.001.075-.073.075z" transform="translate(-1.077 -22.464)"/><path id="Path_353" data-name="Path 353" d="M51.974 8.5a.073.073 0 0 1-.074-.074v-.147L61.12 3h.149v.149L51.974 8.5z" transform="translate(-13.335 -.769)"/><path id="Path_354" data-name="Path 354" d="M62.374 21.965c-.074 0-.074-.074-.074-.149l4.313-7.436c0-.074.074-.074.149 0 .074 0 .074.074 0 .149l-4.313 7.436z" transform="translate(-16.001 -3.673)"/><path id="Path_355" data-name="Path 355" d="M59.409 38.488l-8.328-4.759c-.074 0-.074-.074 0-.149 0-.074.074-.074.149 0l8.179 4.759c.074 0 .074.074 0 .149z" transform="translate(-13.11 -8.597)"/><path id="Path_356" data-name="Path 356" d="M41.969 30.277l-9.295-2.528a.074.074 0 0 1 0-.149l9.369 2.528a.073.073 0 0 1 .074.074c-.074.075-.074.075-.148.075z" transform="translate(-8.385 -7.078)"/><path id="Path_357" data-name="Path 357" d="M93.774 49.046a.073.073 0 0 1-.074-.074l.074-.074c.074 0 .149-.074.149-.223A.073.073 0 0 1 94 48.6l.074.074a.34.34 0 0 1-.3.372z" transform="translate(-24.053 -12.463)"/><path id="Path_358" data-name="Path 358" d="M94.074 46.749a.073.073 0 0 1-.074-.075v-5.8a.073.073 0 0 1 .074-.074l.074.074v5.8a.073.073 0 0 1-.074.075z" transform="translate(-24.13 -10.462)"/><path id="Path_359" data-name="Path 359" d="M94 40.846a.073.073 0 0 1-.074-.074c0-.149-.074-.223-.149-.223a.073.073 0 0 1-.074-.074l.074-.074a.34.34 0 0 1 .3.372z" transform="translate(-24.053 -10.36)"/><path id="Path_360" data-name="Path 360" d="M86.274 40.846a.073.073 0 0 1-.074-.074.34.34 0 0 1 .3-.372.073.073 0 0 1 .074.074l-.074.074c-.074 0-.149.074-.149.223z" transform="translate(-22.13 -10.36)"/><path id="Path_361" data-name="Path 361" d="M86.174 46.749a.073.073 0 0 1-.074-.074v-5.8a.073.073 0 0 1 .074-.074l.074.074v5.8a.073.073 0 0 1-.074.074z" transform="translate(-22.105 -10.462)"/><path id="Path_362" data-name="Path 362" d="M86.5 49.046a.34.34 0 0 1-.3-.372.073.073 0 0 1 .074-.074l.074.074c0 .149.074.223.149.223a.073.073 0 0 1 .074.074z" transform="translate(-22.13 -12.463)"/><path id="Path_363" data-name="Path 363" d="M91.828 49.149h-5.354a.073.073 0 0 1-.074-.074l.074-.075h5.354a.074.074 0 0 1 0 .149z" transform="translate(-22.182 -12.565)"/><path id="Path_364" data-name="Path 364" d="M93.074 44.079a.073.073 0 0 1-.074-.074v-2.231a.073.073 0 0 1 .074-.074l.074.074v2.231a.073.073 0 0 1-.074.074z" transform="translate(-23.874 -10.693)"/><path id="Path_365" data-name="Path 365" d="M91.22 44.595c-.074 0-.074 0-.074-.074-.074-.223-.223-.372-.372-.372a.073.073 0 0 1-.074-.074l.074-.075a.631.631 0 0 1 .595.521.26.26 0 0 1-.149.074z" transform="translate(-23.284 -11.283)"/><path id="Path_366" data-name="Path 366" d="M90.674 45a.073.073 0 0 1-.074-.074v-.149a.073.073 0 0 1 .074-.074l.074.074v.149c.001.074.001.074-.074.074z" transform="translate(-23.259 -11.463)"/><path id="Path_367" data-name="Path 367" d="M92.831 45h-2.157a.073.073 0 0 1-.074-.074l.074-.074a.073.073 0 0 1-.074-.074l.074-.074h2.156a.073.073 0 0 1 .074.074v.149c.001.073.001.073-.073.073z" transform="translate(-23.259 -11.463)"/><path id="Path_368" data-name="Path 368" d="M94 40.846a.073.073 0 0 1-.074-.074c0-.149-.074-.223-.149-.223a.073.073 0 0 1-.074-.074l.074-.074a.34.34 0 0 1 .3.372z" transform="translate(-24.053 -10.36)"/><path id="Path_369" data-name="Path 369" d="M93.6 46.544a.381.381 0 0 1 0-.744.073.073 0 0 1 .074.074l-.074.074c-.074 0-.149.074-.149.223s.074.223.149.223a.073.073 0 0 1 .074.074z" transform="translate(-23.951 -11.745)"/><path id="Path_370" data-name="Path 370" d="M93.774 49.046a.073.073 0 0 1-.074-.074l.074-.074c.074 0 .149-.074.149-.223A.073.073 0 0 1 94 48.6l.074.074a.34.34 0 0 1-.3.372z" transform="translate(-24.053 -12.463)"/><path id="Path_371" data-name="Path 371" d="M94.074 46.749a.073.073 0 0 1-.074-.075v-5.8a.073.073 0 0 1 .074-.074l.074.074v5.8a.073.073 0 0 1-.074.075z" transform="translate(-24.13 -10.462)"/><path id="Path_372" data-name="Path 372" d="M93.674 46.544a.073.073 0 0 1-.074-.074l.074-.074c.074 0 .149-.074.149-.223s-.074-.223-.149-.223a.073.073 0 0 1-.074-.074l.074-.074a.381.381 0 0 1 0 .744z" transform="translate(-24.028 -11.745)"/><path id="Path_373" data-name="Path 373" d="M93.6 43.644a.381.381 0 0 1 0-.744.073.073 0 0 1 .074.074l-.074.074c-.074 0-.149.074-.149.223s.074.223.149.223a.073.073 0 0 1 .074.074z" transform="translate(-23.951 -11.001)"/><path id="Path_374" data-name="Path 374" d="M93.674 43.644a.073.073 0 0 1-.074-.074l.074-.074c.074 0 .149-.074.149-.223s-.074-.223-.149-.223a.073.073 0 0 1-.074-.074l.074-.074a.381.381 0 0 1 0 .744z" transform="translate(-24.028 -11.001)"/><path id="Path_375" data-name="Path 375" d="M90.774 45.495a.073.073 0 0 1-.074-.074l.074-.074a.351.351 0 0 0 .372-.372.074.074 0 0 1 .149 0 .508.508 0 0 1-.521.52z" transform="translate(-23.284 -11.514)"/><path id="Path_376" data-name="Path 376" d="M90.595 45.238a.656.656 0 0 1-.595-.669.607.607 0 0 1 .595-.669.073.073 0 0 1 .074.074l-.074.074c-.223 0-.372.223-.372.52s.149.52.372.52a.073.073 0 0 1 .074.074z" transform="translate(-23.105 -11.257)"/><path id="Path_377" data-name="Path 377" d="M92.92 41.544a.073.073 0 0 1-.074-.074c0-.3-.149-.52-.372-.52a.073.073 0 0 1-.074-.074l.074-.074a.656.656 0 0 1 .595.669c-.074.073-.074.073-.149.073z" transform="translate(-23.72 -10.462)"/><path id="Path_378" data-name="Path 378" d="M93.074 47.279a.073.073 0 0 1-.074-.074v-2.231a.073.073 0 0 1 .074-.074l.074.074v2.231c.001.074.001.074-.074.074z" transform="translate(-23.874 -11.514)"/><path id="Path_379" data-name="Path 379" d="M92.474 48.544a.073.073 0 0 1-.074-.074l.074-.074c.223 0 .372-.223.372-.521a.073.073 0 0 1 .074-.074l.074.074a.6.6 0 0 1-.52.669z" transform="translate(-23.72 -12.258)"/><path id="Path_380" data-name="Path 380" d="M91.092 48.749h-3.718a.073.073 0 0 1-.074-.074l.074-.074h3.718a.074.074 0 1 1 0 .149z" transform="translate(-22.412 -12.463)"/><path id="Path_381" data-name="Path 381" d="M87.195 48.544a.656.656 0 0 1-.595-.669.073.073 0 0 1 .074-.074l.074.074c0 .3.149.52.372.52a.073.073 0 0 1 .074.074s.075.075.001.075z" transform="translate(-22.233 -12.258)"/><path id="Path_382" data-name="Path 382" d="M86.574 46.459a.073.073 0 0 1-.074-.074v-4.61a.073.073 0 0 1 .074-.074l.074.074v4.61c.075.074.001.074-.074.074z" transform="translate(-22.207 -10.693)"/><path id="Path_383" data-name="Path 383" d="M91.092 41.149h-3.718a.073.073 0 0 1-.074-.074l.074-.075h3.718a.074.074 0 1 1 0 .149z" transform="translate(-22.412 -10.514)"/><path id="Path_384" data-name="Path 384" d="M86.274 40.846a.073.073 0 0 1-.074-.074.34.34 0 0 1 .3-.372.073.073 0 0 1 .074.074l-.074.074c-.074 0-.149.074-.149.223z" transform="translate(-22.13 -10.36)"/><path id="Path_385" data-name="Path 385" d="M86.774 41.544a.073.073 0 0 1-.074-.074.607.607 0 0 1 .595-.669.073.073 0 0 1 .074.074.26.26 0 0 1-.149.074c-.223 0-.372.223-.372.52a.073.073 0 0 1-.074.075z" transform="translate(-22.258 -10.462)"/><path id="Path_386" data-name="Path 386" d="M86.174 46.749a.073.073 0 0 1-.074-.074v-5.8a.073.073 0 0 1 .074-.074l.074.074v5.8a.073.073 0 0 1-.074.074z" transform="translate(-22.105 -10.462)"/><path id="Path_387" data-name="Path 387" d="M86.5 49.046a.34.34 0 0 1-.3-.372.073.073 0 0 1 .074-.074l.074.074c0 .149.074.223.149.223a.073.073 0 0 1 .074.074z" transform="translate(-22.13 -12.463)"/><path id="Path_388" data-name="Path 388" d="M91.828 49.149h-5.354a.073.073 0 0 1-.074-.074l.074-.075h5.354a.074.074 0 0 1 0 .149z" transform="translate(-22.182 -12.565)"/><path id="Path_389" data-name="Path 389" d="M92.495 68.195h-6.32a.073.073 0 0 1-.074-.074v-6.247a.073.073 0 0 1 .074-.074h6.32a.073.073 0 0 1 .074.074l-.074.074h-6.246v6.1h6.246a.073.073 0 0 1 .074.074z" transform="translate(-22.105 -15.848)"/><path id="Path_390" data-name="Path 390" d="M88.367 64.633a.967.967 0 0 1 0-1.933.073.073 0 0 1 .074.074s0 .149-.074.149a.745.745 0 0 0-.744.744.8.8 0 0 0 .744.744.073.073 0 0 1 .074.074s0 .148-.074.148z" transform="translate(-22.438 -16.078)"/><path id="Path_391" data-name="Path 391" d="M88.674 64.685a.073.073 0 0 1-.074-.074l.074-.074a.745.745 0 0 0 .744-.744.8.8 0 0 0-.744-.744.073.073 0 0 1-.074-.074l.074-.074a.984.984 0 0 1 .967.967.865.865 0 0 1-.967.817z" transform="translate(-22.746 -16.13)"/><path id="Path_392" data-name="Path 392" d="M88.418 68.733a.98.98 0 0 1 0-1.933.073.073 0 0 1 .074.074l-.074.074a.748.748 0 0 0 0 1.487.073.073 0 0 1 .074.074s0 .224-.074.224z" transform="translate(-22.489 -17.13)"/><path id="Path_393" data-name="Path 393" d="M88.674 68.785a.073.073 0 0 1-.074-.074l.074-.074a.748.748 0 0 0 0-1.487.073.073 0 0 1-.074-.074l.074-.076a.914.914 0 0 1 .818.967.744.744 0 0 1-.818.818z" transform="translate(-22.746 -17.181)"/><path id="Path_394" data-name="Path 394" d="M91.618 68.733a.98.98 0 0 1 0-1.933.073.073 0 0 1 .074.074l-.074.074a.748.748 0 0 0 0 1.487.073.073 0 0 1 .074.074z" transform="translate(-23.31 -17.13)"/><path id="Path_395" data-name="Path 395" d="M91.874 68.785a.073.073 0 0 1-.074-.074l.074-.074a.748.748 0 0 0 0-1.487.073.073 0 0 1-.074-.074l.074-.076a.914.914 0 0 1 .818.967.78.78 0 0 1-.818.818z" transform="translate(-23.566 -17.181)"/><path id="Path_396" data-name="Path 396" d="M91.49 64.779a1.19 1.19 0 1 1 0-2.379.073.073 0 0 1 .074.074l-.074.074a1.041 1.041 0 0 0 0 2.082.073.073 0 0 1 .074.074z" transform="translate(-23.182 -16.001)"/><path id="Path_397" data-name="Path 397" d="M91.874 64.779a.073.073 0 0 1-.074-.074l.074-.074a1.041 1.041 0 1 0 0-2.082.073.073 0 0 1-.074-.074l.074-.074a1.19 1.19 0 1 1 0 2.379z" transform="translate(-23.566 -16.001)"/><path id="Path_398" data-name="Path 398" d="M93.974 68.195a.073.073 0 0 1-.074-.074v-6.247a.073.073 0 0 1 .074-.074l.074.074v6.246a.073.073 0 0 1-.074.075z" transform="translate(-24.105 -15.848)"/><path id="Path_399" data-name="Path 399" d="M87.774 20.049a.073.073 0 0 1-.074-.074v-5.8a.073.073 0 0 1 .074-.074l.074.074v5.8c.075-.001.001.074-.074.074z" transform="translate(-22.515 -3.616)"/><path id="Path_400" data-name="Path 400" d="M88 22.22c-.074 0-.223-.074-.223-.149-.074-.074-.074-.149-.074-.3 0-.074.074-.074.149-.074s.074.074.074.149V22l.074.074a.074.074 0 0 1 0 .149z" transform="translate(-22.515 -5.565)"/><path id="Path_401" data-name="Path 401" d="M92.982 22.349h-4.908a.073.073 0 0 1-.074-.075l.074-.074h4.908a.073.073 0 0 1 .074.074z" transform="translate(-22.592 -5.693)"/><path id="Path_402" data-name="Path 402" d="M92.982 13.849h-4.908a.073.073 0 0 1-.074-.075l.074-.074h4.908a.073.073 0 0 1 .074.074z" transform="translate(-22.592 -3.513)"/><path id="Path_403" data-name="Path 403" d="M87.874 14.12c-.074 0-.074 0-.074-.074a.447.447 0 0 1 .074-.3c.074-.074.149-.149.223-.149a.073.073 0 0 1 .074.074l-.074.074c-.074 0-.074 0-.074.074v.149c-.074.074-.074.149-.149.149z" transform="translate(-22.541 -3.487)"/><path id="Path_404" data-name="Path 404" d="M87.723 20.049h-.149a.073.073 0 0 1-.074-.074v-5.8a.073.073 0 0 1 .074-.074h.149a.073.073 0 0 1 .074.074v5.8c.075-.001.003.074-.074.074zm-.074-.223z" transform="translate(-22.464 -3.616)"/><path id="Path_405" data-name="Path 405" class="cls-2" d="M93.674 19.561a.073.073 0 0 1-.074-.074v-4.313a.073.073 0 0 1 .074-.074l.074.074v4.313c.001.074.001.074-.074.074z" transform="translate(-24.028 -3.872)"/><path id="Path_406" data-name="Path 406" d="M93.656 18.587h-.3v-.52h-1.782a.073.073 0 0 1-.074-.074v-.3a.073.073 0 0 1 .074-.074h1.785v-.446a.073.073 0 0 1 .074-.074h.3a.073.073 0 0 1 .074.074v1.338a.26.26 0 0 1-.151.076zm-.149-.223h.074v-1.19h-.074v.446a.073.073 0 0 1-.074.074h-1.784v.074h1.785a.073.073 0 0 1 .074.074z" transform="translate(-23.489 -4.385)"/><path id="Path_407" data-name="Path 407" class="cls-2" d="M88.374 19.561a.073.073 0 0 1-.074-.074v-4.313a.073.073 0 0 1 .074-.074l.074.074v4.313c.075.074.001.074-.074.074z" transform="translate(-22.669 -3.872)"/><path id="Path_408" data-name="Path 408" class="cls-2" d="M92 14.549h-2.826a.073.073 0 0 1-.074-.074l.074-.074H92a.074.074 0 0 1 0 .149z" transform="translate(-22.874 -3.693)"/><path id="Path_409" data-name="Path 409" class="cls-2" d="M91.926 21.649h-2.752a.073.073 0 0 1-.074-.074l.074-.074h2.751a.073.073 0 0 1 .074.074z" transform="translate(-22.874 -5.513)"/><path id="Path_410" data-name="Path 410" d="M87.774 20.123a.073.073 0 0 1-.074-.074v-5.875a.073.073 0 0 1 .074-.074l.074.074v5.874c.075.001.001.075-.074.075z" transform="translate(-22.515 -3.616)"/><path id="Path_411" data-name="Path 411" d="M92.982 13.849h-4.908a.073.073 0 0 1-.074-.075l.074-.074h4.908a.073.073 0 0 1 .074.074z" transform="translate(-22.592 -3.513)"/><path id="Path_412" data-name="Path 412" d="M92.982 22.349h-4.908a.073.073 0 0 1-.074-.075l.074-.074h4.908a.073.073 0 0 1 .074.074z" transform="translate(-22.592 -5.693)"/><path id="Path_413" data-name="Path 413" class="cls-2" d="M92.974 21.469a.074.074 0 0 1 0-.149.5.5 0 0 0 .52-.446.074.074 0 0 1 .149 0 .651.651 0 0 1-.669.595z" transform="translate(-23.848 -5.334)"/><path id="Path_414" data-name="Path 414" class="cls-2" d="M93.544 15.069c-.074 0-.074 0-.074-.074a.565.565 0 0 0-.595-.446.074.074 0 0 1 0-.149.8.8 0 0 1 .744.595c.074 0 0 0-.074.074z" transform="translate(-23.823 -3.693)"/><path id="Path_415" data-name="Path 415" class="cls-2" d="M88.574 15.069a.073.073 0 0 1-.074-.074.586.586 0 0 1 .595-.595.073.073 0 0 1 .074.074l-.074.074a.351.351 0 0 0-.372.372z" transform="translate(-22.72 -3.693)"/><path id="Path_416" data-name="Path 416" class="cls-2" d="M88.995 21.469a.64.64 0 0 1-.595-.595.073.073 0 0 1 .074-.074l.074.074a.351.351 0 0 0 .372.372.073.073 0 0 1 .074.074s.075.149.001.149z" transform="translate(-22.694 -5.334)"/><path id="Path_417" data-name="Path 417" d="M87.774 14.072A.073.073 0 0 1 87.7 14a.32.32 0 0 1 .3-.3.073.073 0 0 1 .074.074l-.074.075c-.074 0-.074.074-.074.149s-.077.074-.152.074z" transform="translate(-22.515 -3.513)"/><path id="Path_418" data-name="Path 418" d="M88 22.272a.32.32 0 0 1-.3-.3.073.073 0 0 1 .074-.074l.149.074a.16.16 0 0 0 .149.149.073.073 0 0 1 .074.074.26.26 0 0 1-.146.077z" transform="translate(-22.515 -5.616)"/><path id="Path_419" data-name="Path 419" d="M90.595 18.39a.64.64 0 0 1-.595-.595.595.595 0 0 1 1.19 0 .64.64 0 0 1-.595.595zm0-.967a.372.372 0 1 0 .372.372.351.351 0 0 0-.372-.372z" transform="translate(-23.105 -4.411)"/><path id="Path_420" data-name="Path 420" d="M87.723 20.123a.073.073 0 0 1-.074-.074h-.074a.073.073 0 0 1-.074-.074v-5.8a.073.073 0 0 1 .074-.074h.149a.073.073 0 0 1 .074.074v5.874c.074 0 .002.074-.075.074zm-.074-.3z" transform="translate(-22.464 -3.616)"/><path id="Path_421" data-name="Path 421" d="M87.874 13.923a.23.23 0 0 1-.074-.149l.074-.074h.149c.074 0 0 .074 0 .149-.074.074-.074.074-.149.074z" transform="translate(-22.541 -3.513)"/><path id="Path_422" data-name="Path 422" d="M87.974 22.323a.073.073 0 0 1-.074-.074V22.1h.149c.074 0 .074.074 0 .149a.073.073 0 0 1-.075.074z" transform="translate(-22.566 -5.667)"/><path id="Path_423" data-name="Path 423" d="M83.612 11.131H70.674a.073.073 0 0 1-.074-.074V3.174a.073.073 0 0 1 .074-.074l.074.074v7.733h12.864a.073.073 0 0 1 .074.074z" transform="translate(-18.13 -.795)"/><path id="Path_424" data-name="Path 424" d="M92.544 8.446a.073.073 0 0 1-.074-.074c0-.074-.074-.149-.223-.149s-.3.074-.3.149a.073.073 0 0 1-.074.074l-.073-.074A.351.351 0 0 1 92.172 8a.34.34 0 0 1 .372.3.1.1 0 0 1 0 .146z" transform="translate(-23.566 -2.051)"/><path id="Path_425" data-name="Path 425" d="M92.172 8.772a.34.34 0 0 1-.372-.3.074.074 0 1 1 .149 0c0 .074.074.149.223.149s.223-.074.223-.149a.073.073 0 0 1 .074-.074l.074.074c.075.151-.148.3-.371.3z" transform="translate(-23.566 -2.154)"/><path id="Path_426" data-name="Path 426" d="M71.774 7.149a.073.073 0 0 1-.074-.074A2.983 2.983 0 0 1 74.674 4.1a.073.073 0 0 1 .074.074l-.074.074a2.824 2.824 0 0 0-2.826 2.826.073.073 0 0 1-.074.075z" transform="translate(-18.412 -1.051)"/><path id="Path_427" data-name="Path 427" d="M74.674 11.749A2.983 2.983 0 0 1 71.7 8.774a.073.073 0 0 1 .074-.074l.074.074a2.824 2.824 0 0 0 2.826 2.826.073.073 0 0 1 .074.074z" transform="translate(-18.412 -2.231)"/><path id="Path_428" data-name="Path 428" d="M93.39 5.39a.073.073 0 0 1-.074-.074 1 1 0 0 0-1.041-.967.073.073 0 0 1-.074-.074l.074-.074a1.16 1.16 0 0 1 1.19 1.115c.073.074-.001.074-.075.074z" transform="translate(-23.669 -1.077)"/><path id="Path_429" data-name="Path 429" d="M92.274 12.29a.073.073 0 0 1-.074-.074l.074-.074a1 1 0 0 0 1.041-.967.073.073 0 0 1 .074-.074l.074.074a1.115 1.115 0 0 1-1.189 1.115z" transform="translate(-23.669 -2.846)"/><path id="Path_430" data-name="Path 430" d="M71.774 8.769a.073.073 0 0 1-.074-.074v-.52a.073.073 0 0 1 .074-.074l.074.074v.52z" transform="translate(-18.412 -2.077)"/><path id="Path_431" data-name="Path 431" d="M87.992 12.749H75.574a.073.073 0 0 1-.074-.074l.074-.074h12.418a.073.073 0 0 1 .074.074z" transform="translate(-19.386 -3.231)"/><path id="Path_432" data-name="Path 432" d="M93.674 9.938a.073.073 0 0 1-.074-.074v-4.09a.073.073 0 0 1 .074-.074l.074.074v4.09a.073.073 0 0 1-.074.074z" transform="translate(-24.028 -1.462)"/><path id="Path_433" data-name="Path 433" d="M87.992 4.349H75.574a.073.073 0 0 1-.074-.074l.074-.074h12.418a.073.073 0 0 1 .074.074z" transform="translate(-19.386 -1.077)"/><path id="Path_434" data-name="Path 434" d="M78.774 37.041a.073.073 0 0 1-.074-.074v-.892a.073.073 0 0 1 .074-.075l.074.074v.892c.075.075.001.075-.074.075z" transform="translate(-20.207 -9.232)"/><path id="Path_435" data-name="Path 435" d="M78.974 37.323a.23.23 0 0 1-.074-.149c.074-.074.149-.074.3-.074a.073.073 0 0 1 .074.074l-.074.074a.273.273 0 0 0-.223.074z" transform="translate(-20.258 -9.514)"/><path id="Path_436" data-name="Path 436" d="M82 37.349h-2.826a.073.073 0 0 1-.074-.074l.074-.074H82a.074.074 0 1 1 0 .149z" transform="translate(-20.31 -9.539)"/><path id="Path_437" data-name="Path 437" d="M83.3 37.323a.273.273 0 0 0-.223-.074.074.074 0 1 1 0-.149.447.447 0 0 1 .3.074c.074 0 .074.074 0 .149z" transform="translate(-21.31 -9.514)"/><path id="Path_438" data-name="Path 438" d="M83.374 37.041a.073.073 0 0 1-.074-.074v-.892a.073.073 0 0 1 .074-.075l.074.074v.892c.001.075.001.075-.074.075z" transform="translate(-21.387 -9.232)"/><path id="Path_439" data-name="Path 439" d="M83.374 35.918c-.074-.074-.074-.074-.074-.149a.844.844 0 0 0 .223-.595.074.074 0 0 1 .149 0c.074.223-.074.446-.3.744.077-.074.077 0 .002 0z" transform="translate(-21.387 -9.001)"/><path id="Path_440" data-name="Path 440" d="M83.574 34.479a.073.073 0 0 1-.074-.074v-2.231a.073.073 0 0 1 .074-.074l.074.074v2.231c.075 0 .001.074-.074.074z" transform="translate(-21.438 -8.232)"/><path id="Path_441" data-name="Path 441" d="M83.467 31.687a.073.073 0 0 1-.074-.074 1.309 1.309 0 0 0-.818-1.19c-.074 0-.074-.074-.074-.149s.074-.074.149-.074a1.454 1.454 0 0 1 .967 1.413.23.23 0 0 1-.149.074z" transform="translate(-21.181 -7.744)"/><path id="Path_442" data-name="Path 442" d="M82.32 30.423a.943.943 0 0 0-.446-.074.074.074 0 0 1 0-.149 1.265 1.265 0 0 1 .52.074c.074 0 .074.074.074.149-.073-.074-.073 0-.148 0z" transform="translate(-21.002 -7.744)"/><path id="Path_443" data-name="Path 443" d="M81.364 30.449h-1.19a.073.073 0 0 1-.074-.074l.074-.074h1.19a.074.074 0 0 1 0 .149z" transform="translate(-20.566 -7.77)"/><path id="Path_444" data-name="Path 444" d="M79.774 30.4a.073.073 0 0 1-.074-.074c0-.074 0-.074.074-.149a1.1 1.1 0 0 1 .52-.074.074.074 0 0 1 0 .149 4.738 4.738 0 0 0-.52.149z" transform="translate(-20.463 -7.719)"/><path id="Path_445" data-name="Path 445" d="M78.574 31.687a.073.073 0 0 1-.074-.074 1.525 1.525 0 0 1 .967-1.413c.074 0 .074 0 .149.074 0 .074 0 .074-.074.149a1.274 1.274 0 0 0-.818 1.19c-.074.074-.074.074-.149.074z" transform="translate(-20.156 -7.744)"/><path id="Path_446" data-name="Path 446" d="M78.574 34.479a.073.073 0 0 1-.074-.074v-2.231a.073.073 0 0 1 .074-.074l.074.074v2.231a.073.073 0 0 1-.074.074z" transform="translate(-20.156 -8.232)"/><path id="Path_447" data-name="Path 447" d="M78.772 35.918a1.751 1.751 0 0 1-.372-.744.073.073 0 0 1 .074-.074.073.073 0 0 1 .074.074.844.844 0 0 0 .223.595c.149 0 .149.074 0 .149z" transform="translate(-20.13 -9.001)"/><path id="Path_448" data-name="Path 448" d="M78.674 37.695a.073.073 0 0 1-.074-.074c0-.149.074-.223.149-.372a.568.568 0 0 1 .372-.149.074.074 0 0 1 0 .149.263.263 0 0 0-.3.3c-.074.074-.074.149-.149.149z" transform="translate(-20.181 -9.514)"/><path id="Path_449" data-name="Path 449" d="M78.574 38.741a.073.073 0 0 1-.074-.074v-.892a.073.073 0 0 1 .074-.074l.074.074v.892c.001.074.001.074-.074.074z" transform="translate(-20.156 -9.668)"/><path id="Path_450" data-name="Path 450" d="M79.046 39.395c-.3 0-.446-.223-.446-.52a.073.073 0 0 1 .074-.074l.074.074a.32.32 0 0 0 .3.3.073.073 0 0 1 .074.074c.073.071-.002.146-.076.146z" transform="translate(-20.181 -9.95)"/><path id="Path_451" data-name="Path 451" d="M82.487 39.649h-1.413a.073.073 0 0 1-.074-.075l.074-.074h1.413a.074.074 0 1 1 0 .149z" transform="translate(-20.797 -10.129)"/><path id="Path_452" data-name="Path 452" d="M83.064 39.42c-.074 0-.149-.074-.074-.074a.073.073 0 0 1 .074-.074.263.263 0 0 0 .3-.3.073.073 0 0 1 .074-.074l.074.074a.568.568 0 0 1-.149.372c-.076.002-.151.076-.299.076z" transform="translate(-21.299 -9.975)"/><path id="Path_453" data-name="Path 453" d="M83.574 38.741a.073.073 0 0 1-.074-.074v-.892a.073.073 0 0 1 .074-.074l.074.074v.892c.075.074.001.074-.074.074z" transform="translate(-21.438 -9.668)"/><path id="Path_454" data-name="Path 454" d="M83.446 37.72a.073.073 0 0 1-.074-.074.263.263 0 0 0-.3-.3.074.074 0 1 1 0-.149c.149 0 .223.074.372.149a.568.568 0 0 1 .149.372c0-.074-.074 0-.149 0z" transform="translate(-21.31 -9.539)"/><path id="Path_455" data-name="Path 455" d="M82 37.349h-2.826a.073.073 0 0 1-.074-.074l.074-.074H82a.074.074 0 1 1 0 .149z" transform="translate(-20.31 -9.539)"/><path id="Path_456" data-name="Path 456" class="cls-2" d="M81.4 31.049h-.223a.074.074 0 0 1 0-.149h.52c.074 0 .074 0 .074.074s0 .074-.074.074z" transform="translate(-20.822 -7.924)"/><path id="Path_457" data-name="Path 457" class="cls-2" d="M82.692 31.792a.073.073 0 0 1-.074-.074.8.8 0 0 0-.223-.52.46.46 0 0 0-.52-.149c-.074 0-.074 0-.074-.074s0-.074.074-.074a1.2 1.2 0 0 1 .669.223.918.918 0 0 1 .3.595.26.26 0 0 1-.152.073z" transform="translate(-21.002 -7.924)"/><path id="Path_458" data-name="Path 458" class="cls-2" d="M82.874 34.056a.073.073 0 0 1-.074-.074v-2.008a.073.073 0 0 1 .074-.074l.074.074v1.933c.001.075.001.149-.074.149z" transform="translate(-21.258 -8.18)"/><path id="Path_459" data-name="Path 459" class="cls-2" d="M79.274 34.056a.073.073 0 0 1-.074-.074v-2.008a.073.073 0 0 1 .074-.074l.074.074v1.933c.001.075.001.149-.074.149z" transform="translate(-20.335 -8.18)"/><path id="Path_460" data-name="Path 460" class="cls-2" d="M81.718 30.749h-.744a.073.073 0 0 1-.074-.074l.074-.074h.744a.073.073 0 0 1 .074.074z" transform="translate(-20.771 -7.847)"/><path id="Path_461" data-name="Path 461" class="cls-2" d="M82.974 34.105a.073.073 0 0 1-.074-.074v-2.157a.073.073 0 0 1 .074-.074l.074.074v2.156c.075.075.001.075-.074.075z" transform="translate(-21.284 -8.155)"/><path id="Path_462" data-name="Path 462" d="M81.569 30.449h-.595a.073.073 0 0 1-.074-.074l.074-.074h.595a.074.074 0 0 1 0 .149z" transform="translate(-20.771 -7.77)"/><path id="Path_463" data-name="Path 463" d="M83.574 34.479a.073.073 0 0 1-.074-.074v-2.231a.073.073 0 0 1 .074-.074l.074.074v2.231c.075 0 .001.074-.074.074z" transform="translate(-21.438 -8.232)"/><path id="Path_464" data-name="Path 464" d="M83.374 37.041a.073.073 0 0 1-.074-.074v-.892a.073.073 0 0 1 .074-.075l.074.074v.892c.001.075.001.075-.074.075z" transform="translate(-21.387 -9.232)"/><path id="Path_465" data-name="Path 465" class="cls-2" d="M80.918 30.749h-.744a.073.073 0 0 1-.074-.074l.074-.074h.744a.074.074 0 0 1 0 .149z" transform="translate(-20.566 -7.847)"/><path id="Path_466" data-name="Path 466" class="cls-2" d="M79.174 34.105a.073.073 0 0 1-.074-.074v-2.157a.073.073 0 0 1 .074-.074l.074.074v2.156c.001.075.001.075-.074.075z" transform="translate(-20.31 -8.155)"/><path id="Path_467" data-name="Path 467" d="M80.918 30.449h-.744a.073.073 0 0 1-.074-.074l.074-.074h.744a.074.074 0 0 1 0 .149z" transform="translate(-20.566 -7.77)"/><path id="Path_468" data-name="Path 468" d="M78.574 34.479a.073.073 0 0 1-.074-.074v-2.231a.073.073 0 0 1 .074-.074l.074.074v2.231a.073.073 0 0 1-.074.074z" transform="translate(-20.156 -8.232)"/><path id="Path_469" data-name="Path 469" d="M78.774 37.041a.073.073 0 0 1-.074-.074v-.892a.073.073 0 0 1 .074-.075l.074.074v.892c.075.075.001.075-.074.075z" transform="translate(-20.207 -9.232)"/><path id="Path_470" data-name="Path 470" class="cls-2" d="M82.495 36.349h-.52a.073.073 0 0 1-.074-.074l.074-.074h.52a.073.073 0 0 1 .074.074z" transform="translate(-21.028 -9.283)"/><path id="Path_471" data-name="Path 471" class="cls-2" d="M82.274 36.469a.073.073 0 0 1-.074-.074v-.52a.073.073 0 0 1 .074-.074l.074.074v.52c.001.074.001.074-.074.074z" transform="translate(-21.104 -9.18)"/><path id="Path_472" data-name="Path 472" class="cls-2" d="M80.195 36.349h-.52a.073.073 0 0 1-.074-.074l.074-.074h.52a.074.074 0 1 1 0 .149z" transform="translate(-20.438 -9.283)"/><path id="Path_473" data-name="Path 473" class="cls-2" d="M79.974 36.469a.073.073 0 0 1-.074-.074v-.52a.073.073 0 0 1 .074-.074l.074.074v.52c.075.074.001.074-.074.074z" transform="translate(-20.515 -9.18)"/><path id="Path_474" data-name="Path 474" class="cls-2" d="M81.318 38.449h-.744a.073.073 0 0 1-.074-.074l.074-.074h.744a.074.074 0 1 1 0 .149z" transform="translate(-20.669 -9.821)"/><path id="Path_475" data-name="Path 475" class="cls-2" d="M81.074 38.692a.073.073 0 0 1-.074-.074v-.744a.073.073 0 0 1 .074-.074l.074.074v.744a.073.073 0 0 1-.074.074z" transform="translate(-20.797 -9.693)"/><path id="Path_476" data-name="Path 476" d="M82 37.349h-2.826a.073.073 0 0 1-.074-.074l.074-.074H82a.074.074 0 1 1 0 .149z" transform="translate(-20.31 -9.539)"/><path id="Path_477" data-name="Path 477" d="M83.574 38.741a.073.073 0 0 1-.074-.074v-.892a.073.073 0 0 1 .074-.074l.074.074v.892c.075.074.001.074-.074.074z" transform="translate(-21.438 -9.668)"/><path id="Path_478" data-name="Path 478" d="M82.487 39.649h-1.413a.073.073 0 0 1-.074-.075l.074-.074h1.413a.074.074 0 1 1 0 .149z" transform="translate(-20.797 -10.129)"/><path id="Path_479" data-name="Path 479" d="M78.574 38.741a.073.073 0 0 1-.074-.074v-.892a.073.073 0 0 1 .074-.074l.074.074v.892c.001.074.001.074-.074.074z" transform="translate(-20.156 -9.668)"/><path id="Path_480" data-name="Path 480" class="cls-2" d="M80.672 31.049h-.3a.074.074 0 0 1 0-.149h.52c.074 0 .074 0 .074.074s0 .074-.074.074z" transform="translate(-20.617 -7.924)"/><path id="Path_481" data-name="Path 481" class="cls-2" d="M79.274 31.792a.073.073 0 0 1-.074-.074.676.676 0 0 1 .3-.595.909.909 0 0 1 .669-.223.074.074 0 0 1 0 .149h-.074a.8.8 0 0 0-.446.149.675.675 0 0 0-.223.52c-.077 0-.077.074-.152.074z" transform="translate(-20.335 -7.924)"/><path id="Path_482" data-name="Path 482" class="cls-2" d="M82.692 31.641a.073.073 0 0 1-.074-.074.764.764 0 0 0-.744-.818.074.074 0 0 1 0-.149 1.043 1.043 0 0 1 .892 1.041c.074-.074 0 0-.074 0z" transform="translate(-21.002 -7.847)"/><path id="Path_483" data-name="Path 483" d="M82.32 30.423a.943.943 0 0 0-.446-.074.074.074 0 0 1 0-.149 1.265 1.265 0 0 1 .52.074c.074 0 .074.074.074.149-.073-.074-.073 0-.148 0z" transform="translate(-21.002 -7.744)"/><path id="Path_484" data-name="Path 484" d="M83.467 31.687a.073.073 0 0 1-.074-.074 1.309 1.309 0 0 0-.818-1.19c-.074 0-.074-.074-.074-.149s.074-.074.149-.074a1.454 1.454 0 0 1 .967 1.413.23.23 0 0 1-.149.074z" transform="translate(-21.181 -7.744)"/><path id="Path_485" data-name="Path 485" d="M83.374 35.918c-.074-.074-.074-.074-.074-.149a.844.844 0 0 0 .223-.595.074.074 0 0 1 .149 0c.074.223-.074.446-.3.744.077-.074.077 0 .002 0z" transform="translate(-21.387 -9.001)"/><path id="Path_486" data-name="Path 486" class="cls-2" d="M79.274 31.615a.073.073 0 0 1-.074-.074 1.043 1.043 0 0 1 .892-1.041c.074 0 .074 0 .074.074s0 .074-.074.074a.866.866 0 0 0-.744.818c0 .074 0 .149-.074.149z" transform="translate(-20.335 -7.821)"/><path id="Path_487" data-name="Path 487" class="cls-2" d="M80.713 35.273a1.692 1.692 0 0 1-1.413-.744v-.149h.149a1.461 1.461 0 0 0 1.264.669 1.461 1.461 0 0 0 1.264-.669c0-.074.074-.074.149 0 .074 0 .074.074 0 .149a1.61 1.61 0 0 1-1.413.744z" transform="translate(-20.361 -8.802)"/><path id="Path_488" data-name="Path 488" class="cls-2" d="M80.687 35.573a1.941 1.941 0 0 1-1.487-.744v-.149h.149a1.59 1.59 0 0 0 1.338.669 1.807 1.807 0 0 0 1.338-.669c0-.074.074-.074.149 0 .074 0 .074.074 0 .149a1.941 1.941 0 0 1-1.487.744z" transform="translate(-20.335 -8.879)"/><path id="Path_489" data-name="Path 489" d="M79.774 30.4a.073.073 0 0 1-.074-.074c0-.074 0-.074.074-.149a1.1 1.1 0 0 1 .52-.074.074.074 0 0 1 0 .149 4.738 4.738 0 0 0-.52.149z" transform="translate(-20.463 -7.719)"/><path id="Path_490" data-name="Path 490" class="cls-2" d="M78.574 31.687a.073.073 0 0 1-.074-.074 1.525 1.525 0 0 1 .967-1.413c.074 0 .074 0 .149.074 0 .074 0 .074-.074.149a1.274 1.274 0 0 0-.818 1.19c-.074.074-.074.074-.149.074z" transform="translate(-20.156 -7.744)"/><path id="Path_491" data-name="Path 491" d="M78.772 35.918a1.751 1.751 0 0 1-.372-.744.073.073 0 0 1 .074-.074.073.073 0 0 1 .074.074.844.844 0 0 0 .223.595c.149 0 .149.074 0 .149z" transform="translate(-20.13 -9.001)"/><path id="Path_492" data-name="Path 492" class="cls-2" d="M82.323 36.346a.223.223 0 1 1 .223-.223.335.335 0 0 1-.223.223zm0-.3c-.074.074 0 .074 0 0z" transform="translate(-21.079 -9.206)"/><path id="Path_493" data-name="Path 493" class="cls-2" d="M80.023 36.346a.223.223 0 1 1 .223-.223.237.237 0 0 1-.223.223zm0-.3c-.074.074.074.074 0 0z" transform="translate(-20.489 -9.206)"/><path id="Path_494" data-name="Path 494" class="cls-2" d="M81.1 38.595a.3.3 0 1 1 .3-.3.32.32 0 0 1-.3.3zm0-.446a.149.149 0 1 0 .149.149c-.003-.149-.077-.149-.149-.149z" transform="translate(-20.745 -9.744)"/><path id="Path_495" data-name="Path 495" d="M83.446 37.72a.073.073 0 0 1-.074-.074.263.263 0 0 0-.3-.3.074.074 0 1 1 0-.149c.149 0 .223.074.372.149a.568.568 0 0 1 .149.372c0-.074-.074 0-.149 0z" transform="translate(-21.31 -9.539)"/><path id="Path_496" data-name="Path 496" d="M83.064 39.42c-.074 0-.149-.074-.074-.074a.073.073 0 0 1 .074-.074.263.263 0 0 0 .3-.3.073.073 0 0 1 .074-.074l.074.074a.568.568 0 0 1-.149.372c-.076.002-.151.076-.299.076z" transform="translate(-21.299 -9.975)"/><path id="Path_497" data-name="Path 497" d="M79.12 39.395a.508.508 0 0 1-.52-.52.073.073 0 0 1 .074-.074l.074.074a.32.32 0 0 0 .3.3.073.073 0 0 1 .074.074.1.1 0 0 1-.002.146z" transform="translate(-20.181 -9.95)"/><path id="Path_498" data-name="Path 498" d="M78.674 37.695a.073.073 0 0 1-.074-.074c0-.149.074-.223.149-.372a.568.568 0 0 1 .372-.149.074.074 0 0 1 0 .149.263.263 0 0 0-.3.3c-.074.074-.074.149-.149.149z" transform="translate(-20.181 -9.514)"/><path id="Path_499" data-name="Path 499" d="M83.574 31.5a.073.073 0 0 1-.074-.074v-.074c0-.074 0-.074.074-.149.074 0 .074 0 .149.074a.073.073 0 0 0 .074.074c-.074.074-.149.074-.223.149z" transform="translate(-21.438 -8.001)"/><path id="Path_500" data-name="Path 500" d="M83.129 30.8c-.074-.074-.074-.074-.149-.074s-.074-.074 0-.149c0-.074.074-.074.149 0l.074.074a.23.23 0 0 1-.074.149z" transform="translate(-21.29 -7.828)"/><path id="Path_501" data-name="Path 501" d="M83.574 35.7c-.074 0-.074-.074-.074-.149v-.074c0-.074.074-.074.149-.074s.074.074.074.149v.074c-.074.074-.074.074-.149.074z" transform="translate(-21.438 -9.078)"/><path id="Path_502" data-name="Path 502" class="cls-2" d="M78.674 31.5c-.074 0-.074-.074-.074-.149a.073.073 0 0 1 .074-.074c0-.074.074-.074.149-.074s.074.074.074.149v.074c-.148-.003-.148.074-.223.074z" transform="translate(-20.181 -8.001)"/><path id="Path_503" data-name="Path 503" class="cls-2" d="M79.074 30.823a.23.23 0 0 1-.074-.149l.074-.074h.149v.149l-.149.074z" transform="translate(-20.284 -7.847)"/><path id="Path_504" data-name="Path 504" d="M78.674 35.7a.073.073 0 0 1-.074-.074v-.074c0-.074 0-.074.074-.149.074 0 .074 0 .149.074v.074a.16.16 0 0 1-.149.149z" transform="translate(-20.181 -9.078)"/><path id="Path_505" data-name="Path 505" d="M83.374 39.449a.23.23 0 0 1-.074-.149h.149c.074 0 0 .074 0 .149 0-.074 0-.074-.074 0z" transform="translate(-21.387 -10.078)"/><path id="Path_506" data-name="Path 506" d="M59.174 87.982a.073.073 0 0 1-.074-.074v-1.934a.073.073 0 0 1 .074-.074l.074.074v1.933z" transform="translate(-15.181 -22.028)"/><path id="Path_507" data-name="Path 507" d="M84.674 87.982a.073.073 0 0 1-.074-.074v-1.934a.073.073 0 0 1 .074-.074l.074.074v1.933a.073.073 0 0 1-.074.075z" transform="translate(-21.72 -22.028)"/><path id="Path_508" data-name="Path 508" d="M68.472 84.649h-9a.073.073 0 0 1-.074-.074l.074-.074h9a.074.074 0 0 1 0 .149z" transform="translate(-15.258 -21.669)"/><path id="Path_509" data-name="Path 509" d="M68.472 85.649h-9a.073.073 0 0 1-.074-.074l.074-.074h9a.074.074 0 0 1 0 .149z" transform="translate(-15.258 -21.925)"/><path id="Path_510" data-name="Path 510" d="M81.166 84.649h-9.592a.073.073 0 0 1-.074-.074l.074-.074h9.518a.073.073 0 0 1 .074.074z" transform="translate(-18.361 -21.669)"/><path id="Path_511" data-name="Path 511" d="M81.166 85.649h-9.592a.073.073 0 0 1-.074-.074l.074-.074h9.518a.073.073 0 0 1 .074.074z" transform="translate(-18.361 -21.925)"/><path id="Path_512" data-name="Path 512" d="M47.413 102.518h-1.264a.16.16 0 0 1-.149-.149v-.521a.16.16 0 0 1 .149-.149h1.264a.16.16 0 0 1 .149.149v.521a.16.16 0 0 1-.149.149zm-1.115-.3h.892v-.149h-.89z" transform="translate(-11.822 -26.079)"/><path id="Path_513" data-name="Path 513" d="M47.095 100.1h-.3a.32.32 0 0 1-.3-.3v-5.5a.32.32 0 0 1 .3-.3h.3a.32.32 0 0 1 .3.3v5.5c-.077.223-.151.3-.3.3z" transform="translate(-11.95 -24.105)"/><path id="Path_514" data-name="Path 514" d="M47.874 100.051a.073.073 0 0 1-.074-.074v-5.5a.073.073 0 0 1 .074-.074l.074.074v5.5z" transform="translate(-12.283 -24.207)"/><path id="Path_515" data-name="Path 515" d="M46.174 100.051a.073.073 0 0 1-.074-.074v-5.5a.073.073 0 0 1 .074-.074l.074.074v5.5a.073.073 0 0 1-.074.074z" transform="translate(-11.847 -24.207)"/><path id="Path_516" data-name="Path 516" d="M45.569 104.287h-.52a.16.16 0 0 1-.149-.149v-1.19a.16.16 0 0 1 .149-.149h.52a.16.16 0 0 1 .149.149v1.19c.074.075 0 .149-.149.149zm-.3-.372h.149v-.815h-.149z" transform="translate(-11.54 -26.361)"/><path id="Path_517" data-name="Path 517" d="M11.384 103.992H4.1a.32.32 0 0 1-.3-.3v-.3a.32.32 0 0 1 .3-.3h7.287a.32.32 0 0 1 .3.3v.3a.32.32 0 0 1-.303.3z" transform="translate(-1 -26.438)"/><path id="Path_518" data-name="Path 518" d="M21.984 103.992H14.7a.32.32 0 0 1-.3-.3v-.3a.32.32 0 0 1 .3-.3h7.287a.32.32 0 0 1 .3.3v.3a.32.32 0 0 1-.303.3z" transform="translate(-3.718 -26.438)"/><path id="Path_519" data-name="Path 519" d="M32.584 103.992H25.3a.32.32 0 0 1-.3-.3v-.3a.32.32 0 0 1 .3-.3h7.287a.32.32 0 0 1 .3.3v.3c-.08.152-.154.3-.303.3z" transform="translate(-6.436 -26.438)"/><path id="Path_520" data-name="Path 520" d="M42.638 103.992H35.8a.32.32 0 0 1-.3-.3v-.3a.32.32 0 0 1 .3-.3h6.841a.32.32 0 0 1 .3.3v.3a.32.32 0 0 1-.303.3z" transform="translate(-9.129 -26.438)"/><path id="Path_521" data-name="Path 521" d="M47.095 92.536h-.3a.32.32 0 0 1-.3-.3V88.3a.32.32 0 0 1 .3-.3h.3a.32.32 0 0 1 .3.3v3.941c-.077.146-.151.295-.3.295z" transform="translate(-11.95 -22.566)"/><path id="Path_522" data-name="Path 522" d="M11.461 104.549H4.174a.073.073 0 0 1-.074-.074l.074-.074h7.287a.074.074 0 1 1 0 .149z" transform="translate(-1.077 -26.772)"/><path id="Path_523" data-name="Path 523" d="M11.461 103.049H4.174a.073.073 0 0 1-.074-.074l.074-.074h7.287a.074.074 0 1 1 0 .149z" transform="translate(-1.077 -26.387)"/><path id="Path_524" data-name="Path 524" d="M22.061 104.549h-7.287a.073.073 0 0 1-.074-.074l.074-.074h7.287a.074.074 0 1 1 0 .149z" transform="translate(-3.795 -26.772)"/><path id="Path_525" data-name="Path 525" d="M22.061 103.049h-7.287a.073.073 0 0 1-.074-.074l.074-.074h7.287a.074.074 0 1 1 0 .149z" transform="translate(-3.795 -26.387)"/><path id="Path_526" data-name="Path 526" d="M32.661 104.549h-7.287a.073.073 0 0 1-.074-.074l.074-.074h7.287a.073.073 0 0 1 .074.074z" transform="translate(-6.513 -26.772)"/><path id="Path_527" data-name="Path 527" d="M32.661 103.049h-7.287a.073.073 0 0 1-.074-.074l.074-.074h7.287a.073.073 0 0 1 .074.074z" transform="translate(-6.513 -26.387)"/><path id="Path_528" data-name="Path 528" d="M42.715 104.549h-6.841a.073.073 0 0 1-.074-.074l.074-.074h6.841a.074.074 0 0 1 0 .149z" transform="translate(-9.206 -26.772)"/><path id="Path_529" data-name="Path 529" d="M42.715 103.049h-6.841a.073.073 0 0 1-.074-.074l.074-.074h6.841a.074.074 0 0 1 0 .149z" transform="translate(-9.206 -26.387)"/><path id="Path_530" data-name="Path 530" d="M3.969 104.287h-.52a.16.16 0 0 1-.149-.149v-1.19a.16.16 0 0 1 .149-.149h.52a.16.16 0 0 1 .149.149v1.19a.16.16 0 0 1-.149.149zm-.372-.372h.223v-.815H3.6z" transform="translate(-.872 -26.361)"/><path id="Path_531" data-name="Path 531" d="M14.544 104.287h-.595a.16.16 0 0 1-.149-.149v-1.19a.16.16 0 0 1 .149-.149h.52a.16.16 0 0 1 .149.149v1.19c.074.075 0 .149-.074.149zm-.372-.372h.149v-.815h-.149z" transform="translate(-3.564 -26.361)"/><path id="Path_532" data-name="Path 532" d="M25.069 104.287h-.52a.16.16 0 0 1-.149-.149v-1.19a.16.16 0 0 1 .149-.149h.52a.16.16 0 0 1 .149.149v1.19c.074.075 0 .149-.149.149zm-.372-.372h.149v-.815H24.7z" transform="translate(-6.283 -26.361)"/><path id="Path_533" data-name="Path 533" d="M35.669 104.287h-.521a.16.16 0 0 1-.149-.149v-1.19a.16.16 0 0 1 .149-.149h.521a.16.16 0 0 1 .149.149v1.19a.16.16 0 0 1-.149.149zm-.372-.372h.149v-.815H35.3z" transform="translate(-9.001 -26.361)"/><path id="Path_534" data-name="Path 534" d="M46.695 88.549h-.52a.073.073 0 0 1-.074-.074l.074-.074h.52a.074.074 0 0 1 0 .149z" transform="translate(-11.847 -22.669)"/><path id="Path_535" data-name="Path 535" d="M47.72 92.39a.073.073 0 0 1-.074-.074v-3.867h-.372a.073.073 0 0 1-.074-.074l.074-.074h.446a.073.073 0 0 1 .074.074v3.941a.073.073 0 0 1-.074.074z" transform="translate(-12.129 -22.643)"/><path id="Path_536" data-name="Path 536" d="M46.174 92.39a.073.073 0 0 1-.074-.074v-3.942a.073.073 0 0 1 .074-.074l.074.074v3.941c.001.075.001.075-.074.075z" transform="translate(-11.847 -22.643)"/><path id="Path_537" data-name="Path 537" d="M47.413 94.418h-1.264a.16.16 0 0 1-.149-.149v-.52a.16.16 0 0 1 .149-.149h1.264a.16.16 0 0 1 .149.149v.52a.16.16 0 0 1-.149.149zm-1.113-.372h.892V93.9H46.3z" transform="translate(-11.822 -24.002)"/><path id="Path_538" data-name="Path 538" d="M29.661 84.649h-7.287a.073.073 0 0 1-.074-.074l.074-.074h7.287a.073.073 0 0 1 .074.074z" transform="translate(-5.744 -21.669)"/><path id="Path_539" data-name="Path 539" d="M29.661 87.749h-7.287a.073.073 0 0 1-.074-.074l.074-.074h7.287a.073.073 0 0 1 .074.074z" transform="translate(-5.744 -22.464)"/><path id="Path_540" data-name="Path 540" d="M40.768 83.219l-7.287-4.09c-.074 0-.074-.074 0-.149 0-.074.074-.074.149 0l7.213 4.09c.074 0 .074.074 0 .149z" transform="translate(-8.597 -20.239)"/><path id="Path_541" data-name="Path 541" d="M32.174 86.954a.073.073 0 0 1-.074-.074v-2.306a.073.073 0 0 1 .074-.074l.074.074v2.305a.073.073 0 0 1-.074.075z" transform="translate(-8.257 -21.669)"/><path id="Path_542" data-name="Path 542" d="M43.674 86.954a.073.073 0 0 1-.074-.074v-2.306a.073.073 0 0 1 .074-.074l.074.074v2.305a.073.073 0 0 1-.074.075z" transform="translate(-11.206 -21.669)"/><path id="Path_543" data-name="Path 543" d="M22.249 86.954h-.074a.073.073 0 0 1-.074-.074l.074-.074v-2.232a.073.073 0 0 1 .074-.074l.074.074v2.305c0 .075 0 .075-.074.075z" transform="translate(-5.693 -21.669)"/><path id="Path_544" data-name="Path 544" d="M43.749 87.749h-.074a.073.073 0 0 1-.074-.074l.074-.074h.074a.074.074 0 0 1 0 .149z" transform="translate(-11.206 -22.464)"/><path id="Path_545" data-name="Path 545" d="M22.646 84.649h-.372a.073.073 0 0 1-.074-.074l.074-.074h.372a.074.074 0 0 1 0 .149z" transform="translate(-5.718 -21.669)"/><path id="Path_546" data-name="Path 546" d="M43.572 84.649h-.3a.073.073 0 0 1-.074-.074l.074-.074h.3a.073.073 0 0 1 .074.074z" transform="translate(-11.104 -21.669)"/><path id="Path_547" data-name="Path 547" d="M29.738 84.649h-7.064a.073.073 0 0 1-.074-.074l.074-.074h7.064a.073.073 0 0 1 .074.074z" transform="translate(-5.821 -21.669)"/><path id="Path_548" data-name="Path 548" d="M29.738 85.649h-7.064a.073.073 0 0 1-.074-.074l.074-.074h7.064a.073.073 0 0 1 .074.074z" transform="translate(-5.821 -21.925)"/><path id="Path_549" data-name="Path 549" d="M43.146 84.749h-.372a.073.073 0 0 1-.074-.074l.074-.074h.372a.074.074 0 0 1 0 .149z" transform="translate(-10.975 -21.694)"/><path id="Path_550" data-name="Path 550" d="M32.372 84.749h-.3a.073.073 0 0 1-.072-.075l.074-.074h.3a.074.074 0 0 1 0 .149z" transform="translate(-8.232 -21.694)"/><path id="Path_551" data-name="Path 551" d="M.374 86.954a.073.073 0 0 1-.074-.075v-2.305a.073.073 0 0 1 .074-.074l.074.074v2.305a.073.073 0 0 1-.074.075z" transform="translate(-.103 -21.669)"/><path id="Path_552" data-name="Path 552" d="M.449 87.749H.374a.073.073 0 0 1-.074-.075l.074-.074h.075a.073.073 0 0 1 .074.074z" transform="translate(-.103 -22.464)"/><path id="Path_553" data-name="Path 553" class="cls-3" d="M3.974 51.629l-.074-.074v-.074c0-.074.074-.074.149 0v.074a.073.073 0 0 1-.074.074z" transform="translate(-1.026 -13.187)"/><path id="Path_554" data-name="Path 554" class="cls-3" d="M42.974 1.849l-.074-.075V1.7h.149v.074a.073.073 0 0 1-.074.074z" transform="translate(-11.027 -.436)"/><path id="Path_555" data-name="Path 555" class="cls-3" d="M96.774 83.349l-.074-.074V83.2h.149v.074c.074 0 .074 0-.074.074z" transform="translate(-24.823 -21.335)"/></g></svg>