<svg xmlns="http://www.w3.org/2000/svg" viewBox="0 0 789.199 308.1"><defs><style>.cls-1,.cls-6{fill:#fff}.cls-2{fill:#93b9d5}.cls-3{fill:#203561}.cls-4{fill:#6a7aa7}.cls-5{fill:#fec700}.cls-6{opacity:.5}.cls-7{fill:#cbced4}.cls-8{fill:#f1f1f2}</style></defs><g id="Group_618" data-name="Group 618" transform="translate(181.6)"><g id="Group_607" data-name="Group 607"><path id="Path_569" data-name="Path 569" class="cls-1" d="M212.9 26.8a7.136 7.136 0 0 0-10-6.5 10.3 10.3 0 0 0 .6-3.5 10.029 10.029 0 0 0-10-10 10.134 10.134 0 0 0-7.6 3.5 9.924 9.924 0 0 0-19.8.3 7.082 7.082 0 0 0-10 9h-.6a7.092 7.092 0 0 0-1.1 14.1h.1a6.1 6.1 0 0 0 2.2 0h48.2a3.75 3.75 0 0 0 1.1.1 4.1 4.1 0 0 0 1.1-.1h.1a7.011 7.011 0 0 0 5.7-6.9z"/><path id="Path_570" data-name="Path 570" class="cls-2" d="M209 30.5a4.484 4.484 0 0 1-1.1.1 4.1 4.1 0 0 1-1.1-.1h-48.2a6.1 6.1 0 0 1-2.2 0h-.1a7.1 7.1 0 0 1-6-7 6.279 6.279 0 0 1 .3-1.9 6.934 6.934 0 0 0-2.2 5.2 7.1 7.1 0 0 0 6 7h.1a6.1 6.1 0 0 0 2.2 0h48.2a3.75 3.75 0 0 0 1.1.1 4.1 4.1 0 0 0 1.1-.1h.1a6.984 6.984 0 0 0 5.7-5.1 8.763 8.763 0 0 1-3.9 1.8z"/><path id="Path_571" data-name="Path 571" class="cls-3" d="M205.8 35.1a5.284 5.284 0 0 1-1.2-.1h-48a9.638 9.638 0 0 1-2.4 0h-.1a8.385 8.385 0 0 1 .2-16.6 8.752 8.752 0 0 1-.2-1.6 8.451 8.451 0 0 1 8.4-8.4 7.267 7.267 0 0 1 2.5.4 11.258 11.258 0 0 1 21.7-1 10.949 10.949 0 0 1 6.8-2.3 11.288 11.288 0 0 1 11.3 11.3 8.082 8.082 0 0 1-.1 1.6c.4 0 .7-.1 1.1-.1a8.451 8.451 0 0 1 8.4 8.4 8.277 8.277 0 0 1-6.9 8.2.367.367 0 0 0-.3.1 4.869 4.869 0 0 1-1.2.1zm-49.2-2.6H205a5.438 5.438 0 0 0 1.8 0 5.784 5.784 0 0 0-.9-11.5 6.874 6.874 0 0 0-2.4.5 1.4 1.4 0 0 1-1.4-.2 1.238 1.238 0 0 1-.3-1.4 7.887 7.887 0 0 0 .5-3 8.706 8.706 0 0 0-8.7-8.7 8.493 8.493 0 0 0-6.6 3.1 1.237 1.237 0 0 1-1.4.4 1.273 1.273 0 0 1-.9-1.1 8.759 8.759 0 0 0-8.6-7.9 8.588 8.588 0 0 0-8.6 8.2 1.357 1.357 0 0 1-.7 1.1 1.483 1.483 0 0 1-1.3 0 6.026 6.026 0 0 0-2.9-.8 5.8 5.8 0 0 0-5.8 5.8 6.874 6.874 0 0 0 .5 2.4 1.5 1.5 0 0 1-.1 1.3 1.147 1.147 0 0 1-1.2.5h-.5a5.8 5.8 0 0 0-5.8 5.8 5.722 5.722 0 0 0 4.9 5.7 5.438 5.438 0 0 0 1.8 0c0-.2.1-.2.2-.2z"/></g><g id="Group_608" data-name="Group 608" transform="translate(-216)"><path id="Path_572" data-name="Path 572" class="cls-1" d="M100.3 98.6a7.136 7.136 0 0 0-10-6.5 10.3 10.3 0 0 0 .6-3.5 10.029 10.029 0 0 0-10-10 10.134 10.134 0 0 0-7.6 3.5 9.924 9.924 0 0 0-19.8.3 7.082 7.082 0 0 0-10 9h-.6a7.092 7.092 0 0 0-1.1 14.1h.1a6.1 6.1 0 0 0 2.2 0h48.2a6.1 6.1 0 0 0 2.2 0h.1a6.766 6.766 0 0 0 5.7-6.9z"/><path id="Path_573" data-name="Path 573" class="cls-2" d="M96.5 102.4a4.485 4.485 0 0 1-1.1.1 4.1 4.1 0 0 1-1.1-.1H46.1a6.1 6.1 0 0 1-2.2 0h-.1a7.1 7.1 0 0 1-6-7 6.279 6.279 0 0 1 .3-1.9 6.872 6.872 0 0 0-2.2 5.1 7.1 7.1 0 0 0 6 7h.1a6.1 6.1 0 0 0 2.2 0h48.2a6.1 6.1 0 0 0 2.2 0h.1a6.984 6.984 0 0 0 5.7-5.1 8.881 8.881 0 0 1-3.9 1.9z"/><path id="Path_574" data-name="Path 574" class="cls-3" d="M93.2 107a5.284 5.284 0 0 1-1.2-.1H44a9.638 9.638 0 0 1-2.4 0h-.1a8.385 8.385 0 0 1 .2-16.6 8.753 8.753 0 0 1-.2-1.6 8.451 8.451 0 0 1 8.4-8.4 7.267 7.267 0 0 1 2.5.4 11.258 11.258 0 0 1 21.7-1 10.949 10.949 0 0 1 6.8-2.3 11.288 11.288 0 0 1 11.3 11.3 8.083 8.083 0 0 1-.1 1.6c.4 0 .7-.1 1.1-.1a8.451 8.451 0 0 1 8.4 8.4 8.277 8.277 0 0 1-6.9 8.2h-.3a2.537 2.537 0 0 1-1.2.2zM44 104.3h48.4a5.438 5.438 0 0 0 1.8 0 5.784 5.784 0 0 0-.9-11.5 6.874 6.874 0 0 0-2.4.5 1.4 1.4 0 0 1-1.4-.2 1.238 1.238 0 0 1-.3-1.4 7.887 7.887 0 0 0 .5-3A8.706 8.706 0 0 0 81 80a8.493 8.493 0 0 0-6.6 3.1 1.237 1.237 0 0 1-1.4.4 1.273 1.273 0 0 1-.9-1.1 8.759 8.759 0 0 0-8.6-7.9 8.588 8.588 0 0 0-8.6 8.2 1.356 1.356 0 0 1-.7 1.1 1.483 1.483 0 0 1-1.3 0 5.21 5.21 0 0 0-2.9-.9 5.8 5.8 0 0 0-5.8 5.8 6.874 6.874 0 0 0 .5 2.4 1.5 1.5 0 0 1-.1 1.3 1.147 1.147 0 0 1-1.2.5h-.5a5.8 5.8 0 0 0-5.8 5.8 5.722 5.722 0 0 0 4.9 5.7 5.438 5.438 0 0 0 1.8 0 .31.31 0 0 1 .2-.1z"/></g><g id="Group_609" data-name="Group 609" transform="translate(293)"><path id="Path_575" data-name="Path 575" class="cls-1" d="M313.3 82.4a7.136 7.136 0 0 0-10-6.5 10.3 10.3 0 0 0 .6-3.5 10.029 10.029 0 0 0-10-10 10.134 10.134 0 0 0-7.6 3.5 9.924 9.924 0 0 0-19.8.3 7.082 7.082 0 0 0-10 9h-.6a7.092 7.092 0 0 0-1.1 14.1h.1a6.1 6.1 0 0 0 2.2 0h48.2a6.1 6.1 0 0 0 2.2 0h.1a7.011 7.011 0 0 0 5.7-6.9z"/><path id="Path_576" data-name="Path 576" class="cls-2" d="M309.4 86.1a4.485 4.485 0 0 1-1.1.1 4.1 4.1 0 0 1-1.1-.1H259a3.75 3.75 0 0 1-1.1.1 4.1 4.1 0 0 1-1.1-.1h-.1a7.1 7.1 0 0 1-6-7 6.279 6.279 0 0 1 .3-1.9 6.934 6.934 0 0 0-2.2 5.2 7.1 7.1 0 0 0 6 7h.1a3.75 3.75 0 0 0 1.1.1 4.1 4.1 0 0 0 1.1-.1h48.2a3.75 3.75 0 0 0 1.1.1 4.1 4.1 0 0 0 1.1-.1h.1a6.984 6.984 0 0 0 5.7-5.1 9.9 9.9 0 0 1-3.9 1.8z"/><path id="Path_577" data-name="Path 577" class="cls-3" d="M306.2 90.7a5.285 5.285 0 0 1-1.2-.1h-48a9.638 9.638 0 0 1-2.4 0h-.1a8.385 8.385 0 0 1 .2-16.6 8.752 8.752 0 0 1-.2-1.6 8.451 8.451 0 0 1 8.4-8.4 7.267 7.267 0 0 1 2.5.4 11.258 11.258 0 0 1 21.7-1 10.949 10.949 0 0 1 6.8-2.3 11.288 11.288 0 0 1 11.3 11.3 8.082 8.082 0 0 1-.1 1.6c.4 0 .7-.1 1.1-.1a8.451 8.451 0 0 1 8.4 8.4 8.277 8.277 0 0 1-6.9 8.2h-.3a2.972 2.972 0 0 1-1.2.2zm-49.3-2.6h48.4a5.438 5.438 0 0 0 1.8 0 5.722 5.722 0 0 0 4.9-5.7 5.8 5.8 0 0 0-5.8-5.8 6.874 6.874 0 0 0-2.4.5 1.4 1.4 0 0 1-1.4-.2 1.238 1.238 0 0 1-.3-1.4 7.887 7.887 0 0 0 .5-3 8.706 8.706 0 0 0-8.7-8.7 8.493 8.493 0 0 0-6.6 3.1 1.237 1.237 0 0 1-1.4.4 1.273 1.273 0 0 1-.9-1.1 8.759 8.759 0 0 0-8.6-7.9 8.588 8.588 0 0 0-8.6 8.2 1.356 1.356 0 0 1-.7 1.1 1.483 1.483 0 0 1-1.3 0 6.026 6.026 0 0 0-2.9-.8 5.8 5.8 0 0 0-5.8 5.8 6.874 6.874 0 0 0 .5 2.4 1.5 1.5 0 0 1-.1 1.3 1.147 1.147 0 0 1-1.2.5h-.5a5.8 5.8 0 0 0-5.8 5.8 5.722 5.722 0 0 0 4.9 5.7 5.438 5.438 0 0 0 1.8 0c.1-.2.2-.2.2-.2z"/></g><g id="Group_615" data-name="Group 615"><g id="Group_612" data-name="Group 612"><g id="Group_610" data-name="Group 610"><path id="Rectangle_1626" data-name="Rectangle 1626" class="cls-1" transform="translate(79.8 172.4)" d="M0 0h13.7v133.9H0z"/><path id="Path_578" data-name="Path 578" class="cls-4" d="M86.6 154.9a7.49 7.49 0 0 0-7.5 7.5v9.9h15.1v-9.9a7.576 7.576 0 0 0-7.6-7.5z"/><path id="Path_579" data-name="Path 579" class="cls-5" d="M96.6 144.9a10 10 0 1 1-10-10 10.029 10.029 0 0 1 10 10z"/><path id="Path_580" data-name="Path 580" class="cls-6" d="M84.8 138.1a10.061 10.061 0 0 1 9.7 12.5 9.633 9.633 0 0 0 2-6 9.968 9.968 0 0 0-19.6-2.6 9.711 9.711 0 0 1 7.9-3.9z"/><path id="Path_581" data-name="Path 581" class="cls-1" d="M90.3 144.9a3.7 3.7 0 1 1-3.7-3.7 3.691 3.691 0 0 1 3.7 3.7z"/><path id="Path_582" data-name="Path 582" class="cls-3" d="M94.2 173.6H79.1a1.324 1.324 0 0 1-1.3-1.3v-9.9a8.8 8.8 0 0 1 17.6 0v9.9a1.135 1.135 0 0 1-1.2 1.3zm-13.8-2.5h12.5v-8.6a6.2 6.2 0 0 0-12.4 0v8.6z"/><path id="Path_583" data-name="Path 583" class="cls-3" d="M86.6 156.2a11.3 11.3 0 1 1 11.3-11.3 11.353 11.353 0 0 1-11.3 11.3zm0-19.9a8.7 8.7 0 1 0 8.7 8.7 8.706 8.706 0 0 0-8.7-8.7z"/><path id="Rectangle_1627" data-name="Rectangle 1627" class="cls-7" transform="translate(79.8 219)" d="M0 0h13.7v9.5H0z"/><path id="Path_584" data-name="Path 584" class="cls-3" d="M93.5 308.1H79.8a1.324 1.324 0 0 1-1.3-1.3v-142a1.324 1.324 0 0 1 1.3-1.3h13.7a1.324 1.324 0 0 1 1.3 1.3v142a1.324 1.324 0 0 1-1.3 1.3zm-12.4-2.6h11.1V166.1H81.1z"/></g><g id="Group_611" data-name="Group 611"><path id="Rectangle_1628" data-name="Rectangle 1628" class="cls-1" transform="translate(258.6 172.4)" d="M0 0h13.7v133.9H0z"/><path id="Path_585" data-name="Path 585" class="cls-4" d="M265.5 154.9a7.49 7.49 0 0 0-7.5 7.5v9.9h15v-9.9a7.555 7.555 0 0 0-7.5-7.5z"/><path id="Path_586" data-name="Path 586" class="cls-5" d="M275.4 144.9a10 10 0 1 1-10-10 10.029 10.029 0 0 1 10 10z"/><path id="Path_587" data-name="Path 587" class="cls-6" d="M263.6 138.1a10.061 10.061 0 0 1 9.7 12.5 9.633 9.633 0 0 0 2-6 9.968 9.968 0 0 0-19.6-2.6 9.852 9.852 0 0 1 7.9-3.9z"/><path id="Path_588" data-name="Path 588" class="cls-1" d="M269.1 144.9a3.7 3.7 0 1 1-3.7-3.7 3.691 3.691 0 0 1 3.7 3.7z"/><path id="Path_589" data-name="Path 589" class="cls-3" d="M273 173.6h-15.1a1.324 1.324 0 0 1-1.3-1.3v-9.9a8.8 8.8 0 1 1 17.6 0v9.9a1.135 1.135 0 0 1-1.2 1.3zm-13.8-2.5h12.5v-8.6a6.2 6.2 0 0 0-12.4 0v8.6z"/><path id="Path_590" data-name="Path 590" class="cls-3" d="M265.5 156.2a11.3 11.3 0 1 1 11.3-11.3 11.353 11.353 0 0 1-11.3 11.3zm0-19.9a8.7 8.7 0 1 0 8.7 8.7 8.706 8.706 0 0 0-8.7-8.7z"/><path id="Rectangle_1629" data-name="Rectangle 1629" class="cls-7" transform="translate(258.6 219)" d="M0 0h13.7v9.5H0z"/><path id="Path_591" data-name="Path 591" class="cls-3" d="M272.3 308.1h-13.7a1.324 1.324 0 0 1-1.3-1.3v-142a1.324 1.324 0 0 1 1.3-1.3h13.7a1.324 1.324 0 0 1 1.3 1.3v142a1.324 1.324 0 0 1-1.3 1.3zm-12.4-2.6H271V166.1h-11.1z"/></g></g><path id="Rectangle_1630" data-name="Rectangle 1630" class="cls-1" transform="translate(68.1 270.6)" d="M0 0h215.9v19H0z"/><path id="Rectangle_1631" data-name="Rectangle 1631" class="cls-1" transform="translate(70.6 164.8)" d="M0 0h210.9v53.2H0z"/><g id="Group_613" data-name="Group 613"><path id="Path_592" data-name="Path 592" class="cls-5" d="M113.6 164.8l-45.5 45.5v7.7h16.1l53.1-53.2z"/><path id="Path_593" data-name="Path 593" class="cls-5" d="M68.1 172.8v23.7l31.7-31.7H76.1z"/><path id="Path_594" data-name="Path 594" class="cls-5" d="M212 164.8h-23.8L135 218h23.8z"/><path id="Path_595" data-name="Path 595" class="cls-5" d="M174.5 164.8h-23.8L97.5 218h23.8z"/><path id="Path_596" data-name="Path 596" class="cls-5" d="M249.3 164.8h-23.8L172.4 218h23.7z"/><path id="Path_597" data-name="Path 597" class="cls-5" d="M284 204.7v-23.8L247 218h23.7z"/><path id="Path_598" data-name="Path 598" class="cls-5" d="M284 167.2v-2.4h-21.3L209.5 218h23.7z"/></g><path id="Rectangle_1632" data-name="Rectangle 1632" class="cls-6" transform="translate(68.1 164.8)" d="M0 0h215.9v5.5H0z"/><path id="Path_599" data-name="Path 599" class="cls-3" d="M284 219.3H68.1a1.324 1.324 0 0 1-1.3-1.3v-53.2a1.324 1.324 0 0 1 1.3-1.3H284a1.324 1.324 0 0 1 1.3 1.3V218a1.324 1.324 0 0 1-1.3 1.3zm-214.6-2.6h213.3v-50.6H69.4z"/><g id="Group_614" data-name="Group 614"><path id="Path_600" data-name="Path 600" class="cls-5" d="M79.1 270.6l-11 11v8h8.3l19-19z"/><path id="Path_601" data-name="Path 601" class="cls-5" d="M123.1 270.6h-16.4l-19 19H104z"/><path id="Path_602" data-name="Path 602" class="cls-5" d="M150 270.6h-16.3l-19 19H131z"/><path id="Path_603" data-name="Path 603" class="cls-5" d="M177.6 270.6h-16.3l-19 19h16.3z"/><path id="Path_604" data-name="Path 604" class="cls-5" d="M207 270.6h-16.3l-19.1 19H188z"/><path id="Path_605" data-name="Path 605" class="cls-5" d="M234.6 270.6h-16.3l-19 19h16.3z"/><path id="Path_606" data-name="Path 606" class="cls-5" d="M263.2 270.6h-16.3l-19 19h16.3z"/><path id="Path_607" data-name="Path 607" class="cls-5" d="M284 277.4v-6.8h-9.5l-19 19h16.3z"/></g><path id="Path_608" data-name="Path 608" class="cls-3" d="M284 290.9H68.1a1.324 1.324 0 0 1-1.3-1.3v-19a1.324 1.324 0 0 1 1.3-1.3H284a1.324 1.324 0 0 1 1.3 1.3v19a1.324 1.324 0 0 1-1.3 1.3zm-214.6-2.6h213.3v-16.4H69.4z"/></g><path id="Path_609" data-name="Path 609" class="cls-3" d="M327.1 308.1H25a1.3 1.3 0 1 1 0-2.6h302a1.324 1.324 0 0 1 1.3 1.3 1.24 1.24 0 0 1-1.2 1.3z"/><g id="Group_616" data-name="Group 616"><path id="Path_610" data-name="Path 610" class="cls-5" d="M340.8 297.5l-17.4-72h-9l-17.5 72h-10.5v9.3h64.9v-9.3z"/><path id="Path_611" data-name="Path 611" class="cls-8" d="M333.2 265.1h-28.4l2-8.3H331z"/><path id="Rectangle_1633" data-name="Rectangle 1633" class="cls-8" transform="translate(300.5 274.5)" d="M0 0h35.3v8.3H0z"/><path id="Path_612" data-name="Path 612" class="cls-6" d="M335.7 297.5l-16.7-72h3.9l17.9 72z"/><path id="Rectangle_1634" data-name="Rectangle 1634" class="cls-6" transform="translate(285.9 297.5)" d="M0 0h64.9v4.6H0z"/><path id="Path_613" data-name="Path 613" class="cls-3" d="M350.8 308.1h-64.9a1.324 1.324 0 0 1-1.3-1.3v-9.3a1.324 1.324 0 0 1 1.3-1.3h9.5l17.2-71a1.3 1.3 0 0 1 1.3-1h9a1.381 1.381 0 0 1 1.3 1l17.2 71h9.5a1.324 1.324 0 0 1 1.3 1.3v9.3a1.493 1.493 0 0 1-1.4 1.3zm-63.6-2.6h62.3v-6.7h-9.2a1.381 1.381 0 0 1-1.3-1l-17.2-71h-7l-17.2 71a1.3 1.3 0 0 1-1.3 1h-9.2v6.7z"/><path id="Path_614" data-name="Path 614" class="cls-3" d="M323.9 298.8H297a1.3 1.3 0 0 1 0-2.6h26.9a1.3 1.3 0 1 1 0 2.6z"/><path id="Path_615" data-name="Path 615" class="cls-3" d="M346.8 298.8h-15.3a1.3 1.3 0 0 1 0-2.6h15.3a1.3 1.3 0 0 1 0 2.6z"/></g><g id="Group_617" data-name="Group 617"><path id="Path_616" data-name="Path 616" class="cls-5" d="M56.2 297.5l-17.4-72h-9l-17.5 72H1.8v9.3h64.9v-9.3z"/><path id="Path_617" data-name="Path 617" class="cls-8" d="M48.6 265.1H20.2l2-8.3h24.2z"/><path id="Rectangle_1635" data-name="Rectangle 1635" class="cls-8" transform="translate(15.9 274.5)" d="M0 0h35.3v8.3H0z"/><path id="Path_618" data-name="Path 618" class="cls-6" d="M51.1 297.5l-16.7-72h3.9l17.9 72z"/><path id="Rectangle_1636" data-name="Rectangle 1636" class="cls-6" transform="translate(1.3 297.5)" d="M0 0h64.9v4.6H0z"/><path id="Path_619" data-name="Path 619" class="cls-3" d="M66.2 308.1H1.3a1.324 1.324 0 0 1-1.3-1.3v-9.3a1.324 1.324 0 0 1 1.3-1.3h9.5l17.2-71a1.3 1.3 0 0 1 1.3-1h9a1.381 1.381 0 0 1 1.3 1l17.2 71h9.5a1.324 1.324 0 0 1 1.3 1.3v9.3a1.493 1.493 0 0 1-1.4 1.3zm-63.6-2.6h62.3v-6.7h-9.2a1.381 1.381 0 0 1-1.3-1l-17.2-71h-7l-17.2 71a1.3 1.3 0 0 1-1.3 1H2.6z"/><path id="Path_620" data-name="Path 620" class="cls-3" d="M39.3 298.8h-27a1.3 1.3 0 1 1 0-2.6h26.9a1.324 1.324 0 0 1 1.3 1.3 1.181 1.181 0 0 1-1.2 1.3z"/><path id="Path_621" data-name="Path 621" class="cls-3" d="M62.2 298.8H46.8a1.3 1.3 0 1 1 0-2.6h15.3a1.324 1.324 0 0 1 1.3 1.3 1.181 1.181 0 0 1-1.2 1.3z"/></g></g></svg>